<svg xmlns="http://www.w3.org/2000/svg" width="799" height="893">
<rect width="100%" height="100%" fill="#1a1a1a"/>
<polygon points="299.0,178.1 310.5,178.1 310.5,189.7 299.0,189.7" fill="#555" stroke="#888" stroke-width="0.5"/>
<polygon points="299.0,293.8 310.5,293.8 310.5,305.3 299.0,305.3" fill="#555" stroke="#888" stroke-width="0.5"/>
<polygon points="689.2,95.5 722.8,95.5 722.8,181.6 689.2,181.6" fill="#555" stroke="#888" stroke-width="0.5"/>
<polygon points="465.9,376.5 466.1,376.5 466.1,376.6 465.9,376.6" fill="#555" stroke="#888" stroke-width="0.5"/>
<polygon points="465.7,341.3 466.2,341.3 466.2,377.9 465.7,377.9" fill="#555" stroke="#888" stroke-width="0.5"/>
<polygon points="465.9,375.5 466.1,375.5 466.1,375.6 465.9,375.6" fill="#555" stroke="#888" stroke-width="0.5"/>
<polygon points="465.9,374.5 466.1,374.5 466.1,374.6 465.9,374.6" fill="#555" stroke="#888" stroke-width="0.5"/>
<polygon points="465.9,373.5 466.1,373.5 466.1,373.6 465.9,373.6" fill="#555" stroke="#888" stroke-width="0.5"/>
<polygon points="465.9,372.5 466.1,372.5 466.1,372.6 465.9,372.6" fill="#555" stroke="#888" stroke-width="0.5"/>
<polygon points="465.9,371.5 466.1,371.5 466.1,371.6 465.9,371.6" fill="#555" stroke="#888" stroke-width="0.5"/>
<polygon points="465.9,370.5 466.1,370.5 466.1,370.6 465.9,370.6" fill="#555" stroke="#888" stroke-width="0.5"/>
<polygon points="465.9,369.5 466.1,369.5 466.1,369.6 465.9,369.6" fill="#555" stroke="#888" stroke-width="0.5"/>
<polygon points="465.9,368.5 466.1,368.5 466.1,368.6 465.9,368.6" fill="#555" stroke="#888" stroke-width="0.5"/>
<polygon points="465.9,367.5 466.1,367.5 466.1,367.6 465.9,367.6" fill="#555" stroke="#888" stroke-width="0.5"/>
<polygon points="465.9,366.5 466.1,366.5 466.1,366.6 465.9,366.6" fill="#555" stroke="#888" stroke-width="0.5"/>
<polygon points="465.9,365.5 466.1,365.5 466.1,365.6 465.9,365.6" fill="#555" stroke="#888" stroke-width="0.5"/>
<polygon points="465.9,364.5 466.1,364.5 466.1,364.6 465.9,364.6" fill="#555" stroke="#888" stroke-width="0.5"/>
<polygon points="465.9,363.5 466.1,363.5 466.1,363.6 465.9,363.6" fill="#555" stroke="#888" stroke-width="0.5"/>
<polygon points="465.9,362.5 466.1,362.5 466.1,362.6 465.9,362.6" fill="#555" stroke="#888" stroke-width="0.5"/>
<polygon points="465.9,361.5 466.1,361.5 466.1,361.6 465.9,361.6" fill="#555" stroke="#888" stroke-width="0.5"/>
<polygon points="465.9,360.5 466.1,360.5 466.1,360.6 465.9,360.6" fill="#555" stroke="#888" stroke-width="0.5"/>
<polygon points="465.9,359.5 466.1,359.5 466.1,359.6 465.9,359.6" fill="#555" stroke="#888" stroke-width="0.5"/>
<polygon points="465.9,358.5 466.1,358.5 466.1,358.6 465.9,358.6" fill="#555" stroke="#888" stroke-width="0.5"/>
<polygon points="465.9,357.5 466.1,357.5 466.1,357.6 465.9,357.6" fill="#555" stroke="#888" stroke-width="0.5"/>
<polygon points="465.9,356.5 466.1,356.5 466.1,356.6 465.9,356.6" fill="#555" stroke="#888" stroke-width="0.5"/>
<polygon points="465.9,355.5 466.1,355.5 466.1,355.6 465.9,355.6" fill="#555" stroke="#888" stroke-width="0.5"/>
<polygon points="465.9,354.5 466.1,354.5 466.1,354.6 465.9,354.6" fill="#555" stroke="#888" stroke-width="0.5"/>
<polygon points="465.9,353.5 466.1,353.5 466.1,353.6 465.9,353.6" fill="#555" stroke="#888" stroke-width="0.5"/>
<polygon points="465.9,352.5 466.1,352.5 466.1,352.6 465.9,352.6" fill="#555" stroke="#888" stroke-width="0.5"/>
<polygon points="465.9,351.5 466.1,351.5 466.1,351.6 465.9,351.6" fill="#555" stroke="#888" stroke-width="0.5"/>
<polygon points="465.9,350.5 466.1,350.5 466.1,350.6 465.9,350.6" fill="#555" stroke="#888" stroke-width="0.5"/>
<polygon points="465.9,349.5 466.1,349.5 466.1,349.6 465.9,349.6" fill="#555" stroke="#888" stroke-width="0.5"/>
<polygon points="465.9,348.5 466.1,348.5 466.1,348.6 465.9,348.6" fill="#555" stroke="#888" stroke-width="0.5"/>
<polygon points="465.9,347.5 466.1,347.5 466.1,347.6 465.9,347.6" fill="#555" stroke="#888" stroke-width="0.5"/>
<polygon points="465.9,346.5 466.1,346.5 466.1,346.6 465.9,346.6" fill="#555" stroke="#888" stroke-width="0.5"/>
<polygon points="465.9,345.5 466.1,345.5 466.1,345.6 465.9,345.6" fill="#555" stroke="#888" stroke-width="0.5"/>
<polygon points="465.9,344.5 466.1,344.5 466.1,344.6 465.9,344.6" fill="#555" stroke="#888" stroke-width="0.5"/>
<polygon points="465.9,343.5 466.1,343.5 466.1,343.6 465.9,343.6" fill="#555" stroke="#888" stroke-width="0.5"/>
<polygon points="465.9,342.5 466.1,342.5 466.1,342.6 465.9,342.6" fill="#555" stroke="#888" stroke-width="0.5"/>
<polygon points="465.7,341.3 466.2,341.3 466.2,377.9 465.7,377.9" fill="#555" stroke="#888" stroke-width="0.5"/>
<polygon points="465.7,341.3 466.2,341.3 466.2,377.9 465.7,377.9" fill="#555" stroke="#888" stroke-width="0.5"/>
<polygon points="465.7,341.3 466.2,341.3 466.2,377.9 465.7,377.9" fill="#555" stroke="#888" stroke-width="0.5"/>
<polygon points="465.7,341.3 466.2,341.3 466.2,377.9 465.7,377.9" fill="#555" stroke="#888" stroke-width="0.5"/>
<polygon points="465.7,341.3 466.2,341.3 466.2,377.9 465.7,377.9" fill="#555" stroke="#888" stroke-width="0.5"/>
<polygon points="465.7,341.3 466.2,341.3 466.2,377.9 465.7,377.9" fill="#555" stroke="#888" stroke-width="0.5"/>
<polygon points="465.7,341.3 466.2,341.3 466.2,377.9 465.7,377.9" fill="#555" stroke="#888" stroke-width="0.5"/>
<polygon points="465.7,341.3 466.2,341.3 466.2,377.9 465.7,377.9" fill="#555" stroke="#888" stroke-width="0.5"/>
<polygon points="465.7,341.3 466.2,341.3 466.2,377.9 465.7,377.9" fill="#555" stroke="#888" stroke-width="0.5"/>
<polygon points="465.7,341.3 466.2,341.3 466.2,377.9 465.7,377.9" fill="#555" stroke="#888" stroke-width="0.5"/>
<polygon points="465.7,341.3 466.2,341.3 466.2,377.9 465.7,377.9" fill="#555" stroke="#888" stroke-width="0.5"/>
<polygon points="465.7,341.3 466.2,341.3 466.2,377.9 465.7,377.9" fill="#555" stroke="#888" stroke-width="0.5"/>
<polygon points="465.7,341.3 466.2,341.3 466.2,377.9 465.7,377.9" fill="#555" stroke="#888" stroke-width="0.5"/>
<polygon points="465.7,341.3 466.2,341.3 466.2,377.9 465.7,377.9" fill="#555" stroke="#888" stroke-width="0.5"/>
<polygon points="465.7,341.3 466.2,341.3 466.2,377.9 465.7,377.9" fill="#555" stroke="#888" stroke-width="0.5"/>
<polygon points="465.7,341.3 466.2,341.3 466.2,377.9 465.7,377.9" fill="#555" stroke="#888" stroke-width="0.5"/>
<polygon points="465.7,341.3 466.2,341.3 466.2,377.9 465.7,377.9" fill="#555" stroke="#888" stroke-width="0.5"/>
<polygon points="465.7,341.3 466.2,341.3 466.2,377.9 465.7,377.9" fill="#555" stroke="#888" stroke-width="0.5"/>
<polygon points="465.7,341.3 466.2,341.3 466.2,377.9 465.7,377.9" fill="#555" stroke="#888" stroke-width="0.5"/>
<polygon points="465.7,341.3 466.2,341.3 466.2,377.9 465.7,377.9" fill="#555" stroke="#888" stroke-width="0.5"/>
<polygon points="465.7,341.3 466.2,341.3 466.2,377.9 465.7,377.9" fill="#555" stroke="#888" stroke-width="0.5"/>
<polygon points="465.7,341.3 466.2,341.3 466.2,377.9 465.7,377.9" fill="#555" stroke="#888" stroke-width="0.5"/>
<polygon points="465.7,341.3 466.2,341.3 466.2,377.9 465.7,377.9" fill="#555" stroke="#888" stroke-width="0.5"/>
<polygon points="465.7,341.3 466.2,341.3 466.2,377.9 465.7,377.9" fill="#555" stroke="#888" stroke-width="0.5"/>
<polygon points="465.7,341.3 466.2,341.3 466.2,377.9 465.7,377.9" fill="#555" stroke="#888" stroke-width="0.5"/>
<polygon points="465.7,341.3 466.2,341.3 466.2,377.9 465.7,377.9" fill="#555" stroke="#888" stroke-width="0.5"/>
<polygon points="465.7,341.3 466.2,341.3 466.2,377.9 465.7,377.9" fill="#555" stroke="#888" stroke-width="0.5"/>
<polygon points="465.7,341.3 466.2,341.3 466.2,377.9 465.7,377.9" fill="#555" stroke="#888" stroke-width="0.5"/>
<polygon points="465.7,341.3 466.2,341.3 466.2,377.9 465.7,377.9" fill="#555" stroke="#888" stroke-width="0.5"/>
<polygon points="465.7,341.3 466.2,341.3 466.2,377.9 465.7,377.9" fill="#555" stroke="#888" stroke-width="0.5"/>
<polygon points="465.7,341.3 466.2,341.3 466.2,377.9 465.7,377.9" fill="#555" stroke="#888" stroke-width="0.5"/>
<polygon points="465.7,341.3 466.2,341.3 466.2,377.9 465.7,377.9" fill="#555" stroke="#888" stroke-width="0.5"/>
<polygon points="465.7,341.3 466.2,341.3 466.2,377.9 465.7,377.9" fill="#555" stroke="#888" stroke-width="0.5"/>
<polygon points="465.7,341.3 466.2,341.3 466.2,377.9 465.7,377.9" fill="#555" stroke="#888" stroke-width="0.5"/>
<polygon points="465.7,341.3 466.2,341.3 466.2,377.9 465.7,377.9" fill="#555" stroke="#888" stroke-width="0.5"/>
<polygon points="465.7,341.3 466.2,341.3 466.2,377.9 465.7,377.9" fill="#555" stroke="#888" stroke-width="0.5"/>
<polygon points="465.7,341.3 466.2,341.3 466.2,377.9 465.7,377.9" fill="#555" stroke="#888" stroke-width="0.5"/>
<polygon points="465.7,341.3 466.2,341.3 466.2,377.9 465.7,377.9" fill="#555" stroke="#888" stroke-width="0.5"/>
<polygon points="465.7,341.3 466.2,341.3 466.2,377.9 465.7,377.9" fill="#555" stroke="#888" stroke-width="0.5"/>
<polygon points="465.7,341.3 466.2,341.3 466.2,377.9 465.7,377.9" fill="#555" stroke="#888" stroke-width="0.5"/>
<polygon points="465.7,341.3 466.2,341.3 466.2,377.9 465.7,377.9" fill="#555" stroke="#888" stroke-width="0.5"/>
<polygon points="465.7,341.3 466.2,341.3 466.2,377.9 465.7,377.9" fill="#555" stroke="#888" stroke-width="0.5"/>
<polygon points="465.7,341.3 466.2,341.3 466.2,377.9 465.7,377.9" fill="#555" stroke="#888" stroke-width="0.5"/>
<polygon points="465.7,341.3 466.2,341.3 466.2,377.9 465.7,377.9" fill="#555" stroke="#888" stroke-width="0.5"/>
<polygon points="465.7,341.3 466.2,341.3 466.2,377.9 465.7,377.9" fill="#555" stroke="#888" stroke-width="0.5"/>
<polygon points="465.7,341.3 466.2,341.3 466.2,377.9 465.7,377.9" fill="#555" stroke="#888" stroke-width="0.5"/>
<polygon points="465.7,341.3 466.2,341.3 466.2,377.9 465.7,377.9" fill="#555" stroke="#888" stroke-width="0.5"/>
<polygon points="465.7,341.3 466.2,341.3 466.2,377.9 465.7,377.9" fill="#555" stroke="#888" stroke-width="0.5"/>
<polygon points="465.7,341.3 466.2,341.3 466.2,377.9 465.7,377.9" fill="#555" stroke="#888" stroke-width="0.5"/>
<polygon points="465.7,341.3 466.2,341.3 466.2,377.9 465.7,377.9" fill="#555" stroke="#888" stroke-width="0.5"/>
<polygon points="465.7,341.3 466.2,341.3 466.2,377.9 465.7,377.9" fill="#555" stroke="#888" stroke-width="0.5"/>
<polygon points="465.7,341.3 466.2,341.3 466.2,377.9 465.7,377.9" fill="#555" stroke="#888" stroke-width="0.5"/>
<polygon points="465.7,341.3 466.2,341.3 466.2,377.9 465.7,377.9" fill="#555" stroke="#888" stroke-width="0.5"/>
<polygon points="465.7,341.3 466.2,341.3 466.2,377.9 465.7,377.9" fill="#555" stroke="#888" stroke-width="0.5"/>
<polygon points="465.7,341.3 466.2,341.3 466.2,377.9 465.7,377.9" fill="#555" stroke="#888" stroke-width="0.5"/>
<polygon points="465.7,341.3 466.2,341.3 466.2,377.9 465.7,377.9" fill="#555" stroke="#888" stroke-width="0.5"/>
<polygon points="465.7,341.3 466.2,341.3 466.2,377.9 465.7,377.9" fill="#555" stroke="#888" stroke-width="0.5"/>
<polygon points="694.8,165.0 696.3,165.0 696.3,179.4 694.8,179.4" fill="#555" stroke="#888" stroke-width="0.5"/>
<polygon points="515.9,97.8 526.6,97.8 526.6,128.5 515.9,128.5" fill="#555" stroke="#888" stroke-width="0.5"/>
<polygon points="521.2,123.5 521.4,123.5 521.4,123.5 521.2,123.5" fill="#555" stroke="#888" stroke-width="0.5"/>
<polygon points="521.2,122.5 521.4,122.5 521.4,122.5 521.2,122.5" fill="#555" stroke="#888" stroke-width="0.5"/>
<polygon points="521.2,121.5 521.4,121.5 521.4,121.5 521.2,121.5" fill="#555" stroke="#888" stroke-width="0.5"/>
<polygon points="521.2,120.5 521.4,120.5 521.4,120.5 521.2,120.5" fill="#555" stroke="#888" stroke-width="0.5"/>
<polygon points="521.2,119.5 521.4,119.5 521.4,119.5 521.2,119.5" fill="#555" stroke="#888" stroke-width="0.5"/>
<polygon points="521.2,118.5 521.4,118.5 521.4,118.5 521.2,118.5" fill="#555" stroke="#888" stroke-width="0.5"/>
<polygon points="521.2,117.5 521.4,117.5 521.4,117.5 521.2,117.5" fill="#555" stroke="#888" stroke-width="0.5"/>
<polygon points="521.2,116.5 521.4,116.5 521.4,116.5 521.2,116.5" fill="#555" stroke="#888" stroke-width="0.5"/>
<polygon points="521.2,115.5 521.4,115.5 521.4,115.5 521.2,115.5" fill="#555" stroke="#888" stroke-width="0.5"/>
<polygon points="521.2,114.5 521.4,114.5 521.4,114.5 521.2,114.5" fill="#555" stroke="#888" stroke-width="0.5"/>
<polygon points="521.2,113.5 521.4,113.5 521.4,113.5 521.2,113.5" fill="#555" stroke="#888" stroke-width="0.5"/>
<polygon points="521.2,112.5 521.4,112.5 521.4,112.5 521.2,112.5" fill="#555" stroke="#888" stroke-width="0.5"/>
<polygon points="521.2,111.5 521.4,111.5 521.4,111.5 521.2,111.5" fill="#555" stroke="#888" stroke-width="0.5"/>
<polygon points="521.2,110.5 521.4,110.5 521.4,110.5 521.2,110.5" fill="#555" stroke="#888" stroke-width="0.5"/>
<polygon points="521.2,109.5 521.4,109.5 521.4,109.5 521.2,109.5" fill="#555" stroke="#888" stroke-width="0.5"/>
<polygon points="521.2,108.5 521.4,108.5 521.4,108.5 521.2,108.5" fill="#555" stroke="#888" stroke-width="0.5"/>
<polygon points="521.2,107.5 521.4,107.5 521.4,107.5 521.2,107.5" fill="#555" stroke="#888" stroke-width="0.5"/>
<polygon points="521.2,106.5 521.4,106.5 521.4,106.5 521.2,106.5" fill="#555" stroke="#888" stroke-width="0.5"/>
<polygon points="521.2,105.5 521.4,105.5 521.4,105.5 521.2,105.5" fill="#555" stroke="#888" stroke-width="0.5"/>
<polygon points="521.2,104.5 521.4,104.5 521.4,104.5 521.2,104.5" fill="#555" stroke="#888" stroke-width="0.5"/>
<polygon points="521.2,103.5 521.4,103.5 521.4,103.5 521.2,103.5" fill="#555" stroke="#888" stroke-width="0.5"/>
<polygon points="521.2,102.5 521.4,102.5 521.4,102.5 521.2,102.5" fill="#555" stroke="#888" stroke-width="0.5"/>
<polygon points="521.2,101.5 521.4,101.5 521.4,101.5 521.2,101.5" fill="#555" stroke="#888" stroke-width="0.5"/>
<polygon points="521.2,100.5 521.4,100.5 521.4,100.5 521.2,100.5" fill="#555" stroke="#888" stroke-width="0.5"/>
<polygon points="521.2,99.5 521.4,99.5 521.4,99.5 521.2,99.5" fill="#555" stroke="#888" stroke-width="0.5"/>
<polygon points="521.0,98.4 521.5,98.4 521.5,124.5 521.0,124.5" fill="#555" stroke="#888" stroke-width="0.5"/>
<polygon points="521.0,98.4 521.5,98.4 521.5,124.5 521.0,124.5" fill="#555" stroke="#888" stroke-width="0.5"/>
<polygon points="521.0,98.4 521.5,98.4 521.5,124.5 521.0,124.5" fill="#555" stroke="#888" stroke-width="0.5"/>
<polygon points="521.0,98.4 521.5,98.4 521.5,124.5 521.0,124.5" fill="#555" stroke="#888" stroke-width="0.5"/>
<polygon points="521.0,98.4 521.5,98.4 521.5,124.5 521.0,124.5" fill="#555" stroke="#888" stroke-width="0.5"/>
<polygon points="521.0,98.4 521.5,98.4 521.5,124.5 521.0,124.5" fill="#555" stroke="#888" stroke-width="0.5"/>
<polygon points="521.0,98.4 521.5,98.4 521.5,124.5 521.0,124.5" fill="#555" stroke="#888" stroke-width="0.5"/>
<polygon points="521.0,98.4 521.5,98.4 521.5,124.5 521.0,124.5" fill="#555" stroke="#888" stroke-width="0.5"/>
<polygon points="521.0,98.4 521.5,98.4 521.5,124.5 521.0,124.5" fill="#555" stroke="#888" stroke-width="0.5"/>
<polygon points="521.0,98.4 521.5,98.4 521.5,124.5 521.0,124.5" fill="#555" stroke="#888" stroke-width="0.5"/>
<polygon points="521.0,98.4 521.5,98.4 521.5,124.5 521.0,124.5" fill="#555" stroke="#888" stroke-width="0.5"/>
<polygon points="521.0,98.4 521.5,98.4 521.5,124.5 521.0,124.5" fill="#555" stroke="#888" stroke-width="0.5"/>
<polygon points="521.0,98.4 521.5,98.4 521.5,124.5 521.0,124.5" fill="#555" stroke="#888" stroke-width="0.5"/>
<polygon points="521.0,98.4 521.5,98.4 521.5,124.5 521.0,124.5" fill="#555" stroke="#888" stroke-width="0.5"/>
<polygon points="521.0,98.4 521.5,98.4 521.5,124.5 521.0,124.5" fill="#555" stroke="#888" stroke-width="0.5"/>
<polygon points="521.0,98.4 521.5,98.4 521.5,124.5 521.0,124.5" fill="#555" stroke="#888" stroke-width="0.5"/>
<polygon points="521.0,98.4 521.5,98.4 521.5,124.5 521.0,124.5" fill="#555" stroke="#888" stroke-width="0.5"/>
<polygon points="521.0,98.4 521.5,98.4 521.5,124.5 521.0,124.5" fill="#555" stroke="#888" stroke-width="0.5"/>
<polygon points="521.0,98.4 521.5,98.4 521.5,124.5 521.0,124.5" fill="#555" stroke="#888" stroke-width="0.5"/>
<polygon points="521.0,98.4 521.5,98.4 521.5,124.5 521.0,124.5" fill="#555" stroke="#888" stroke-width="0.5"/>
<polygon points="521.0,98.4 521.5,98.4 521.5,124.5 521.0,124.5" fill="#555" stroke="#888" stroke-width="0.5"/>
<polygon points="521.0,98.4 521.5,98.4 521.5,124.5 521.0,124.5" fill="#555" stroke="#888" stroke-width="0.5"/>
<polygon points="521.0,98.4 521.5,98.4 521.5,124.5 521.0,124.5" fill="#555" stroke="#888" stroke-width="0.5"/>
<polygon points="521.0,98.4 521.5,98.4 521.5,124.5 521.0,124.5" fill="#555" stroke="#888" stroke-width="0.5"/>
<polygon points="521.0,98.4 521.5,98.4 521.5,124.5 521.0,124.5" fill="#555" stroke="#888" stroke-width="0.5"/>
<polygon points="521.0,98.4 521.5,98.4 521.5,124.5 521.0,124.5" fill="#555" stroke="#888" stroke-width="0.5"/>
<polygon points="521.0,98.4 521.5,98.4 521.5,124.5 521.0,124.5" fill="#555" stroke="#888" stroke-width="0.5"/>
<polygon points="521.0,98.4 521.5,98.4 521.5,124.5 521.0,124.5" fill="#555" stroke="#888" stroke-width="0.5"/>
<polygon points="348.6,207.4 348.6,205.8 363.0,205.8 363.0,207.4" fill="#555" stroke="#888" stroke-width="0.5"/>
<polygon points="467.0,97.8 477.7,97.8 477.7,128.5 467.0,128.5" fill="#555" stroke="#888" stroke-width="0.5"/>
<polygon points="472.2,123.5 472.4,123.5 472.4,123.5 472.2,123.5" fill="#555" stroke="#888" stroke-width="0.5"/>
<polygon points="472.2,122.5 472.4,122.5 472.4,122.5 472.2,122.5" fill="#555" stroke="#888" stroke-width="0.5"/>
<polygon points="472.2,121.5 472.4,121.5 472.4,121.5 472.2,121.5" fill="#555" stroke="#888" stroke-width="0.5"/>
<polygon points="472.2,120.5 472.4,120.5 472.4,120.5 472.2,120.5" fill="#555" stroke="#888" stroke-width="0.5"/>
<polygon points="472.2,119.5 472.4,119.5 472.4,119.5 472.2,119.5" fill="#555" stroke="#888" stroke-width="0.5"/>
<polygon points="472.2,118.5 472.4,118.5 472.4,118.5 472.2,118.5" fill="#555" stroke="#888" stroke-width="0.5"/>
<polygon points="472.2,117.5 472.4,117.5 472.4,117.5 472.2,117.5" fill="#555" stroke="#888" stroke-width="0.5"/>
<polygon points="472.2,116.5 472.4,116.5 472.4,116.5 472.2,116.5" fill="#555" stroke="#888" stroke-width="0.5"/>
<polygon points="472.2,115.5 472.4,115.5 472.4,115.5 472.2,115.5" fill="#555" stroke="#888" stroke-width="0.5"/>
<polygon points="472.2,114.5 472.4,114.5 472.4,114.5 472.2,114.5" fill="#555" stroke="#888" stroke-width="0.5"/>
<polygon points="472.2,113.5 472.4,113.5 472.4,113.5 472.2,113.5" fill="#555" stroke="#888" stroke-width="0.5"/>
<polygon points="472.2,112.5 472.4,112.5 472.4,112.5 472.2,112.5" fill="#555" stroke="#888" stroke-width="0.5"/>
<polygon points="472.2,111.5 472.4,111.5 472.4,111.5 472.2,111.5" fill="#555" stroke="#888" stroke-width="0.5"/>
<polygon points="472.2,110.5 472.4,110.5 472.4,110.5 472.2,110.5" fill="#555" stroke="#888" stroke-width="0.5"/>
<polygon points="472.2,109.5 472.4,109.5 472.4,109.5 472.2,109.5" fill="#555" stroke="#888" stroke-width="0.5"/>
<polygon points="472.2,108.5 472.4,108.5 472.4,108.5 472.2,108.5" fill="#555" stroke="#888" stroke-width="0.5"/>
<polygon points="472.2,107.5 472.4,107.5 472.4,107.5 472.2,107.5" fill="#555" stroke="#888" stroke-width="0.5"/>
<polygon points="472.2,106.5 472.4,106.5 472.4,106.5 472.2,106.5" fill="#555" stroke="#888" stroke-width="0.5"/>
<polygon points="472.2,105.5 472.4,105.5 472.4,105.5 472.2,105.5" fill="#555" stroke="#888" stroke-width="0.5"/>
<polygon points="472.2,104.5 472.4,104.5 472.4,104.5 472.2,104.5" fill="#555" stroke="#888" stroke-width="0.5"/>
<polygon points="472.2,103.5 472.4,103.5 472.4,103.5 472.2,103.5" fill="#555" stroke="#888" stroke-width="0.5"/>
<polygon points="472.2,102.5 472.4,102.5 472.4,102.5 472.2,102.5" fill="#555" stroke="#888" stroke-width="0.5"/>
<polygon points="472.2,101.5 472.4,101.5 472.4,101.5 472.2,101.5" fill="#555" stroke="#888" stroke-width="0.5"/>
<polygon points="472.2,100.5 472.4,100.5 472.4,100.5 472.2,100.5" fill="#555" stroke="#888" stroke-width="0.5"/>
<polygon points="472.2,99.5 472.4,99.5 472.4,99.5 472.2,99.5" fill="#555" stroke="#888" stroke-width="0.5"/>
<polygon points="472.1,98.4 472.6,98.4 472.6,124.5 472.1,124.5" fill="#555" stroke="#888" stroke-width="0.5"/>
<polygon points="472.1,98.4 472.6,98.4 472.6,124.5 472.1,124.5" fill="#555" stroke="#888" stroke-width="0.5"/>
<polygon points="472.1,98.4 472.6,98.4 472.6,124.5 472.1,124.5" fill="#555" stroke="#888" stroke-width="0.5"/>
<polygon points="472.1,98.4 472.6,98.4 472.6,124.5 472.1,124.5" fill="#555" stroke="#888" stroke-width="0.5"/>
<polygon points="472.1,98.4 472.6,98.4 472.6,124.5 472.1,124.5" fill="#555" stroke="#888" stroke-width="0.5"/>
<polygon points="472.1,98.4 472.6,98.4 472.6,124.5 472.1,124.5" fill="#555" stroke="#888" stroke-width="0.5"/>
<polygon points="472.1,98.4 472.6,98.4 472.6,124.5 472.1,124.5" fill="#555" stroke="#888" stroke-width="0.5"/>
<polygon points="472.1,98.4 472.6,98.4 472.6,124.5 472.1,124.5" fill="#555" stroke="#888" stroke-width="0.5"/>
<polygon points="472.1,98.4 472.6,98.4 472.6,124.5 472.1,124.5" fill="#555" stroke="#888" stroke-width="0.5"/>
<polygon points="472.1,98.4 472.6,98.4 472.6,124.5 472.1,124.5" fill="#555" stroke="#888" stroke-width="0.5"/>
<polygon points="472.1,98.4 472.6,98.4 472.6,124.5 472.1,124.5" fill="#555" stroke="#888" stroke-width="0.5"/>
<polygon points="472.1,98.4 472.6,98.4 472.6,124.5 472.1,124.5" fill="#555" stroke="#888" stroke-width="0.5"/>
<polygon points="472.1,98.4 472.6,98.4 472.6,124.5 472.1,124.5" fill="#555" stroke="#888" stroke-width="0.5"/>
<polygon points="472.1,98.4 472.6,98.4 472.6,124.5 472.1,124.5" fill="#555" stroke="#888" stroke-width="0.5"/>
<polygon points="472.1,98.4 472.6,98.4 472.6,124.5 472.1,124.5" fill="#555" stroke="#888" stroke-width="0.5"/>
<polygon points="472.1,98.4 472.6,98.4 472.6,124.5 472.1,124.5" fill="#555" stroke="#888" stroke-width="0.5"/>
<polygon points="472.1,98.4 472.6,98.4 472.6,124.5 472.1,124.5" fill="#555" stroke="#888" stroke-width="0.5"/>
<polygon points="472.1,98.4 472.6,98.4 472.6,124.5 472.1,124.5" fill="#555" stroke="#888" stroke-width="0.5"/>
<polygon points="472.1,98.4 472.6,98.4 472.6,124.5 472.1,124.5" fill="#555" stroke="#888" stroke-width="0.5"/>
<polygon points="472.1,98.4 472.6,98.4 472.6,124.5 472.1,124.5" fill="#555" stroke="#888" stroke-width="0.5"/>
<polygon points="472.1,98.4 472.6,98.4 472.6,124.5 472.1,124.5" fill="#555" stroke="#888" stroke-width="0.5"/>
<polygon points="472.1,98.4 472.6,98.4 472.6,124.5 472.1,124.5" fill="#555" stroke="#888" stroke-width="0.5"/>
<polygon points="472.1,98.4 472.6,98.4 472.6,124.5 472.1,124.5" fill="#555" stroke="#888" stroke-width="0.5"/>
<polygon points="472.1,98.4 472.6,98.4 472.6,124.5 472.1,124.5" fill="#555" stroke="#888" stroke-width="0.5"/>
<polygon points="472.1,98.4 472.6,98.4 472.6,124.5 472.1,124.5" fill="#555" stroke="#888" stroke-width="0.5"/>
<polygon points="472.1,98.4 472.6,98.4 472.6,124.5 472.1,124.5" fill="#555" stroke="#888" stroke-width="0.5"/>
<polygon points="472.1,98.4 472.6,98.4 472.6,124.5 472.1,124.5" fill="#555" stroke="#888" stroke-width="0.5"/>
<polygon points="472.1,98.4 472.6,98.4 472.6,124.5 472.1,124.5" fill="#555" stroke="#888" stroke-width="0.5"/>
<polygon points="417.3,97.8 428.1,97.8 428.1,128.5 417.3,128.5" fill="#555" stroke="#888" stroke-width="0.5"/>
<polygon points="422.6,123.5 422.8,123.5 422.8,123.5 422.6,123.5" fill="#555" stroke="#888" stroke-width="0.5"/>
<polygon points="422.6,122.5 422.8,122.5 422.8,122.5 422.6,122.5" fill="#555" stroke="#888" stroke-width="0.5"/>
<polygon points="422.6,121.5 422.8,121.5 422.8,121.5 422.6,121.5" fill="#555" stroke="#888" stroke-width="0.5"/>
<polygon points="422.6,120.5 422.8,120.5 422.8,120.5 422.6,120.5" fill="#555" stroke="#888" stroke-width="0.5"/>
<polygon points="422.6,119.5 422.8,119.5 422.8,119.5 422.6,119.5" fill="#555" stroke="#888" stroke-width="0.5"/>
<polygon points="422.6,118.5 422.8,118.5 422.8,118.5 422.6,118.5" fill="#555" stroke="#888" stroke-width="0.5"/>
<polygon points="422.6,117.5 422.8,117.5 422.8,117.5 422.6,117.5" fill="#555" stroke="#888" stroke-width="0.5"/>
<polygon points="422.6,116.5 422.8,116.5 422.8,116.5 422.6,116.5" fill="#555" stroke="#888" stroke-width="0.5"/>
<polygon points="422.6,115.5 422.8,115.5 422.8,115.5 422.6,115.5" fill="#555" stroke="#888" stroke-width="0.5"/>
<polygon points="422.6,114.5 422.8,114.5 422.8,114.5 422.6,114.5" fill="#555" stroke="#888" stroke-width="0.5"/>
<polygon points="422.6,113.5 422.8,113.5 422.8,113.5 422.6,113.5" fill="#555" stroke="#888" stroke-width="0.5"/>
<polygon points="422.6,112.5 422.8,112.5 422.8,112.5 422.6,112.5" fill="#555" stroke="#888" stroke-width="0.5"/>
<polygon points="422.6,111.5 422.8,111.5 422.8,111.5 422.6,111.5" fill="#555" stroke="#888" stroke-width="0.5"/>
<polygon points="422.6,110.5 422.8,110.5 422.8,110.5 422.6,110.5" fill="#555" stroke="#888" stroke-width="0.5"/>
<polygon points="422.6,109.5 422.8,109.5 422.8,109.5 422.6,109.5" fill="#555" stroke="#888" stroke-width="0.5"/>
<polygon points="422.6,108.5 422.8,108.5 422.8,108.5 422.6,108.5" fill="#555" stroke="#888" stroke-width="0.5"/>
<polygon points="422.6,107.5 422.8,107.5 422.8,107.5 422.6,107.5" fill="#555" stroke="#888" stroke-width="0.5"/>
<polygon points="422.6,106.5 422.8,106.5 422.8,106.5 422.6,106.5" fill="#555" stroke="#888" stroke-width="0.5"/>
<polygon points="422.6,105.5 422.8,105.5 422.8,105.5 422.6,105.5" fill="#555" stroke="#888" stroke-width="0.5"/>
<polygon points="422.6,104.5 422.8,104.5 422.8,104.5 422.6,104.5" fill="#555" stroke="#888" stroke-width="0.5"/>
<polygon points="422.6,103.5 422.8,103.5 422.8,103.5 422.6,103.5" fill="#555" stroke="#888" stroke-width="0.5"/>
<polygon points="422.6,102.5 422.8,102.5 422.8,102.5 422.6,102.5" fill="#555" stroke="#888" stroke-width="0.5"/>
<polygon points="422.6,101.5 422.8,101.5 422.8,101.5 422.6,101.5" fill="#555" stroke="#888" stroke-width="0.5"/>
<polygon points="422.6,100.5 422.8,100.5 422.8,100.5 422.6,100.5" fill="#555" stroke="#888" stroke-width="0.5"/>
<polygon points="422.6,99.5 422.8,99.5 422.8,99.5 422.6,99.5" fill="#555" stroke="#888" stroke-width="0.5"/>
<polygon points="422.4,98.4 422.9,98.4 422.9,124.5 422.4,124.5" fill="#555" stroke="#888" stroke-width="0.5"/>
<polygon points="422.4,98.4 422.9,98.4 422.9,124.5 422.4,124.5" fill="#555" stroke="#888" stroke-width="0.5"/>
<polygon points="422.4,98.4 422.9,98.4 422.9,124.5 422.4,124.5" fill="#555" stroke="#888" stroke-width="0.5"/>
<polygon points="422.4,98.4 422.9,98.4 422.9,124.5 422.4,124.5" fill="#555" stroke="#888" stroke-width="0.5"/>
<polygon points="422.4,98.4 422.9,98.4 422.9,124.5 422.4,124.5" fill="#555" stroke="#888" stroke-width="0.5"/>
<polygon points="422.4,98.4 422.9,98.4 422.9,124.5 422.4,124.5" fill="#555" stroke="#888" stroke-width="0.5"/>
<polygon points="422.4,98.4 422.9,98.4 422.9,124.5 422.4,124.5" fill="#555" stroke="#888" stroke-width="0.5"/>
<polygon points="422.4,98.4 422.9,98.4 422.9,124.5 422.4,124.5" fill="#555" stroke="#888" stroke-width="0.5"/>
<polygon points="422.4,98.4 422.9,98.4 422.9,124.5 422.4,124.5" fill="#555" stroke="#888" stroke-width="0.5"/>
<polygon points="422.4,98.4 422.9,98.4 422.9,124.5 422.4,124.5" fill="#555" stroke="#888" stroke-width="0.5"/>
<polygon points="422.4,98.4 422.9,98.4 422.9,124.5 422.4,124.5" fill="#555" stroke="#888" stroke-width="0.5"/>
<polygon points="422.4,98.4 422.9,98.4 422.9,124.5 422.4,124.5" fill="#555" stroke="#888" stroke-width="0.5"/>
<polygon points="422.4,98.4 422.9,98.4 422.9,124.5 422.4,124.5" fill="#555" stroke="#888" stroke-width="0.5"/>
<polygon points="422.4,98.4 422.9,98.4 422.9,124.5 422.4,124.5" fill="#555" stroke="#888" stroke-width="0.5"/>
<polygon points="422.4,98.4 422.9,98.4 422.9,124.5 422.4,124.5" fill="#555" stroke="#888" stroke-width="0.5"/>
<polygon points="422.4,98.4 422.9,98.4 422.9,124.5 422.4,124.5" fill="#555" stroke="#888" stroke-width="0.5"/>
<polygon points="422.4,98.4 422.9,98.4 422.9,124.5 422.4,124.5" fill="#555" stroke="#888" stroke-width="0.5"/>
<polygon points="422.4,98.4 422.9,98.4 422.9,124.5 422.4,124.5" fill="#555" stroke="#888" stroke-width="0.5"/>
<polygon points="422.4,98.4 422.9,98.4 422.9,124.5 422.4,124.5" fill="#555" stroke="#888" stroke-width="0.5"/>
<polygon points="422.4,98.4 422.9,98.4 422.9,124.5 422.4,124.5" fill="#555" stroke="#888" stroke-width="0.5"/>
<polygon points="422.4,98.4 422.9,98.4 422.9,124.5 422.4,124.5" fill="#555" stroke="#888" stroke-width="0.5"/>
<polygon points="422.4,98.4 422.9,98.4 422.9,124.5 422.4,124.5" fill="#555" stroke="#888" stroke-width="0.5"/>
<polygon points="422.4,98.4 422.9,98.4 422.9,124.5 422.4,124.5" fill="#555" stroke="#888" stroke-width="0.5"/>
<polygon points="422.4,98.4 422.9,98.4 422.9,124.5 422.4,124.5" fill="#555" stroke="#888" stroke-width="0.5"/>
<polygon points="422.4,98.4 422.9,98.4 422.9,124.5 422.4,124.5" fill="#555" stroke="#888" stroke-width="0.5"/>
<polygon points="422.4,98.4 422.9,98.4 422.9,124.5 422.4,124.5" fill="#555" stroke="#888" stroke-width="0.5"/>
<polygon points="422.4,98.4 422.9,98.4 422.9,124.5 422.4,124.5" fill="#555" stroke="#888" stroke-width="0.5"/>
<polygon points="422.4,98.4 422.9,98.4 422.9,124.5 422.4,124.5" fill="#555" stroke="#888" stroke-width="0.5"/>
<polygon points="368.4,97.8 379.1,97.8 379.1,128.5 368.4,128.5" fill="#555" stroke="#888" stroke-width="0.5"/>
<polygon points="373.7,123.5 373.9,123.5 373.9,123.5 373.7,123.5" fill="#555" stroke="#888" stroke-width="0.5"/>
<polygon points="373.7,122.5 373.9,122.5 373.9,122.5 373.7,122.5" fill="#555" stroke="#888" stroke-width="0.5"/>
<polygon points="373.7,121.5 373.9,121.5 373.9,121.5 373.7,121.5" fill="#555" stroke="#888" stroke-width="0.5"/>
<polygon points="373.7,120.5 373.9,120.5 373.9,120.5 373.7,120.5" fill="#555" stroke="#888" stroke-width="0.5"/>
<polygon points="373.7,119.5 373.9,119.5 373.9,119.5 373.7,119.5" fill="#555" stroke="#888" stroke-width="0.5"/>
<polygon points="373.7,118.5 373.9,118.5 373.9,118.5 373.7,118.5" fill="#555" stroke="#888" stroke-width="0.5"/>
<polygon points="373.7,117.5 373.9,117.5 373.9,117.5 373.7,117.5" fill="#555" stroke="#888" stroke-width="0.5"/>
<polygon points="373.7,116.5 373.9,116.5 373.9,116.5 373.7,116.5" fill="#555" stroke="#888" stroke-width="0.5"/>
<polygon points="373.7,115.5 373.9,115.5 373.9,115.5 373.7,115.5" fill="#555" stroke="#888" stroke-width="0.5"/>
<polygon points="373.7,114.5 373.9,114.5 373.9,114.5 373.7,114.5" fill="#555" stroke="#888" stroke-width="0.5"/>
<polygon points="373.7,113.5 373.9,113.5 373.9,113.5 373.7,113.5" fill="#555" stroke="#888" stroke-width="0.5"/>
<polygon points="373.7,112.5 373.9,112.5 373.9,112.5 373.7,112.5" fill="#555" stroke="#888" stroke-width="0.5"/>
<polygon points="373.7,111.5 373.9,111.5 373.9,111.5 373.7,111.5" fill="#555" stroke="#888" stroke-width="0.5"/>
<polygon points="373.7,110.5 373.9,110.5 373.9,110.5 373.7,110.5" fill="#555" stroke="#888" stroke-width="0.5"/>
<polygon points="373.7,109.5 373.9,109.5 373.9,109.5 373.7,109.5" fill="#555" stroke="#888" stroke-width="0.5"/>
<polygon points="373.7,108.5 373.9,108.5 373.9,108.5 373.7,108.5" fill="#555" stroke="#888" stroke-width="0.5"/>
<polygon points="373.7,107.5 373.9,107.5 373.9,107.5 373.7,107.5" fill="#555" stroke="#888" stroke-width="0.5"/>
<polygon points="373.7,106.5 373.9,106.5 373.9,106.5 373.7,106.5" fill="#555" stroke="#888" stroke-width="0.5"/>
<polygon points="373.7,105.5 373.9,105.5 373.9,105.5 373.7,105.5" fill="#555" stroke="#888" stroke-width="0.5"/>
<polygon points="373.7,104.5 373.9,104.5 373.9,104.5 373.7,104.5" fill="#555" stroke="#888" stroke-width="0.5"/>
<polygon points="373.7,103.5 373.9,103.5 373.9,103.5 373.7,103.5" fill="#555" stroke="#888" stroke-width="0.5"/>
<polygon points="373.7,102.5 373.9,102.5 373.9,102.5 373.7,102.5" fill="#555" stroke="#888" stroke-width="0.5"/>
<polygon points="373.7,101.5 373.9,101.5 373.9,101.5 373.7,101.5" fill="#555" stroke="#888" stroke-width="0.5"/>
<polygon points="373.7,100.5 373.9,100.5 373.9,100.5 373.7,100.5" fill="#555" stroke="#888" stroke-width="0.5"/>
<polygon points="373.7,99.5 373.9,99.5 373.9,99.5 373.7,99.5" fill="#555" stroke="#888" stroke-width="0.5"/>
<polygon points="373.5,98.4 374.0,98.4 374.0,124.5 373.5,124.5" fill="#555" stroke="#888" stroke-width="0.5"/>
<polygon points="373.5,98.4 374.0,98.4 374.0,124.5 373.5,124.5" fill="#555" stroke="#888" stroke-width="0.5"/>
<polygon points="373.5,98.4 374.0,98.4 374.0,124.5 373.5,124.5" fill="#555" stroke="#888" stroke-width="0.5"/>
<polygon points="373.5,98.4 374.0,98.4 374.0,124.5 373.5,124.5" fill="#555" stroke="#888" stroke-width="0.5"/>
<polygon points="373.5,98.4 374.0,98.4 374.0,124.5 373.5,124.5" fill="#555" stroke="#888" stroke-width="0.5"/>
<polygon points="373.5,98.4 374.0,98.4 374.0,124.5 373.5,124.5" fill="#555" stroke="#888" stroke-width="0.5"/>
<polygon points="373.5,98.4 374.0,98.4 374.0,124.5 373.5,124.5" fill="#555" stroke="#888" stroke-width="0.5"/>
<polygon points="373.5,98.4 374.0,98.4 374.0,124.5 373.5,124.5" fill="#555" stroke="#888" stroke-width="0.5"/>
<polygon points="373.5,98.4 374.0,98.4 374.0,124.5 373.5,124.5" fill="#555" stroke="#888" stroke-width="0.5"/>
<polygon points="373.5,98.4 374.0,98.4 374.0,124.5 373.5,124.5" fill="#555" stroke="#888" stroke-width="0.5"/>
<polygon points="373.5,98.4 374.0,98.4 374.0,124.5 373.5,124.5" fill="#555" stroke="#888" stroke-width="0.5"/>
<polygon points="373.5,98.4 374.0,98.4 374.0,124.5 373.5,124.5" fill="#555" stroke="#888" stroke-width="0.5"/>
<polygon points="373.5,98.4 374.0,98.4 374.0,124.5 373.5,124.5" fill="#555" stroke="#888" stroke-width="0.5"/>
<polygon points="373.5,98.4 374.0,98.4 374.0,124.5 373.5,124.5" fill="#555" stroke="#888" stroke-width="0.5"/>
<polygon points="373.5,98.4 374.0,98.4 374.0,124.5 373.5,124.5" fill="#555" stroke="#888" stroke-width="0.5"/>
<polygon points="373.5,98.4 374.0,98.4 374.0,124.5 373.5,124.5" fill="#555" stroke="#888" stroke-width="0.5"/>
<polygon points="373.5,98.4 374.0,98.4 374.0,124.5 373.5,124.5" fill="#555" stroke="#888" stroke-width="0.5"/>
<polygon points="373.5,98.4 374.0,98.4 374.0,124.5 373.5,124.5" fill="#555" stroke="#888" stroke-width="0.5"/>
<polygon points="373.5,98.4 374.0,98.4 374.0,124.5 373.5,124.5" fill="#555" stroke="#888" stroke-width="0.5"/>
<polygon points="373.5,98.4 374.0,98.4 374.0,124.5 373.5,124.5" fill="#555" stroke="#888" stroke-width="0.5"/>
<polygon points="373.5,98.4 374.0,98.4 374.0,124.5 373.5,124.5" fill="#555" stroke="#888" stroke-width="0.5"/>
<polygon points="373.5,98.4 374.0,98.4 374.0,124.5 373.5,124.5" fill="#555" stroke="#888" stroke-width="0.5"/>
<polygon points="373.5,98.4 374.0,98.4 374.0,124.5 373.5,124.5" fill="#555" stroke="#888" stroke-width="0.5"/>
<polygon points="373.5,98.4 374.0,98.4 374.0,124.5 373.5,124.5" fill="#555" stroke="#888" stroke-width="0.5"/>
<polygon points="373.5,98.4 374.0,98.4 374.0,124.5 373.5,124.5" fill="#555" stroke="#888" stroke-width="0.5"/>
<polygon points="373.5,98.4 374.0,98.4 374.0,124.5 373.5,124.5" fill="#555" stroke="#888" stroke-width="0.5"/>
<polygon points="373.5,98.4 374.0,98.4 374.0,124.5 373.5,124.5" fill="#555" stroke="#888" stroke-width="0.5"/>
<polygon points="373.5,98.4 374.0,98.4 374.0,124.5 373.5,124.5" fill="#555" stroke="#888" stroke-width="0.5"/>
<polygon points="318.9,97.8 329.7,97.8 329.7,128.5 318.9,128.5" fill="#555" stroke="#888" stroke-width="0.5"/>
<polygon points="324.2,123.5 324.4,123.5 324.4,123.5 324.2,123.5" fill="#555" stroke="#888" stroke-width="0.5"/>
<polygon points="324.2,122.5 324.4,122.5 324.4,122.5 324.2,122.5" fill="#555" stroke="#888" stroke-width="0.5"/>
<polygon points="324.2,121.5 324.4,121.5 324.4,121.5 324.2,121.5" fill="#555" stroke="#888" stroke-width="0.5"/>
<polygon points="324.2,120.5 324.4,120.5 324.4,120.5 324.2,120.5" fill="#555" stroke="#888" stroke-width="0.5"/>
<polygon points="324.2,119.5 324.4,119.5 324.4,119.5 324.2,119.5" fill="#555" stroke="#888" stroke-width="0.5"/>
<polygon points="324.2,118.5 324.4,118.5 324.4,118.5 324.2,118.5" fill="#555" stroke="#888" stroke-width="0.5"/>
<polygon points="324.2,117.5 324.4,117.5 324.4,117.5 324.2,117.5" fill="#555" stroke="#888" stroke-width="0.5"/>
<polygon points="324.2,116.5 324.4,116.5 324.4,116.5 324.2,116.5" fill="#555" stroke="#888" stroke-width="0.5"/>
<polygon points="324.2,115.5 324.4,115.5 324.4,115.5 324.2,115.5" fill="#555" stroke="#888" stroke-width="0.5"/>
<polygon points="324.2,114.5 324.4,114.5 324.4,114.5 324.2,114.5" fill="#555" stroke="#888" stroke-width="0.5"/>
<polygon points="324.2,113.5 324.4,113.5 324.4,113.5 324.2,113.5" fill="#555" stroke="#888" stroke-width="0.5"/>
<polygon points="324.2,112.5 324.4,112.5 324.4,112.5 324.2,112.5" fill="#555" stroke="#888" stroke-width="0.5"/>
<polygon points="324.2,111.5 324.4,111.5 324.4,111.5 324.2,111.5" fill="#555" stroke="#888" stroke-width="0.5"/>
<polygon points="324.2,110.5 324.4,110.5 324.4,110.5 324.2,110.5" fill="#555" stroke="#888" stroke-width="0.5"/>
<polygon points="324.2,109.5 324.4,109.5 324.4,109.5 324.2,109.5" fill="#555" stroke="#888" stroke-width="0.5"/>
<polygon points="324.2,108.5 324.4,108.5 324.4,108.5 324.2,108.5" fill="#555" stroke="#888" stroke-width="0.5"/>
<polygon points="324.2,107.5 324.4,107.5 324.4,107.5 324.2,107.5" fill="#555" stroke="#888" stroke-width="0.5"/>
<polygon points="324.2,106.5 324.4,106.5 324.4,106.5 324.2,106.5" fill="#555" stroke="#888" stroke-width="0.5"/>
<polygon points="324.2,105.5 324.4,105.5 324.4,105.5 324.2,105.5" fill="#555" stroke="#888" stroke-width="0.5"/>
<polygon points="324.2,104.5 324.4,104.5 324.4,104.5 324.2,104.5" fill="#555" stroke="#888" stroke-width="0.5"/>
<polygon points="324.2,103.5 324.4,103.5 324.4,103.5 324.2,103.5" fill="#555" stroke="#888" stroke-width="0.5"/>
<polygon points="324.2,102.5 324.4,102.5 324.4,102.5 324.2,102.5" fill="#555" stroke="#888" stroke-width="0.5"/>
<polygon points="324.2,101.5 324.4,101.5 324.4,101.5 324.2,101.5" fill="#555" stroke="#888" stroke-width="0.5"/>
<polygon points="324.2,100.5 324.4,100.5 324.4,100.5 324.2,100.5" fill="#555" stroke="#888" stroke-width="0.5"/>
<polygon points="324.2,99.5 324.4,99.5 324.4,99.5 324.2,99.5" fill="#555" stroke="#888" stroke-width="0.5"/>
<polygon points="324.1,98.4 324.6,98.4 324.6,124.5 324.1,124.5" fill="#555" stroke="#888" stroke-width="0.5"/>
<polygon points="324.1,98.4 324.6,98.4 324.6,124.5 324.1,124.5" fill="#555" stroke="#888" stroke-width="0.5"/>
<polygon points="324.1,98.4 324.6,98.4 324.6,124.5 324.1,124.5" fill="#555" stroke="#888" stroke-width="0.5"/>
<polygon points="324.1,98.4 324.6,98.4 324.6,124.5 324.1,124.5" fill="#555" stroke="#888" stroke-width="0.5"/>
<polygon points="324.1,98.4 324.6,98.4 324.6,124.5 324.1,124.5" fill="#555" stroke="#888" stroke-width="0.5"/>
<polygon points="324.1,98.4 324.6,98.4 324.6,124.5 324.1,124.5" fill="#555" stroke="#888" stroke-width="0.5"/>
<polygon points="324.1,98.4 324.6,98.4 324.6,124.5 324.1,124.5" fill="#555" stroke="#888" stroke-width="0.5"/>
<polygon points="324.1,98.4 324.6,98.4 324.6,124.5 324.1,124.5" fill="#555" stroke="#888" stroke-width="0.5"/>
<polygon points="324.1,98.4 324.6,98.4 324.6,124.5 324.1,124.5" fill="#555" stroke="#888" stroke-width="0.5"/>
<polygon points="324.1,98.4 324.6,98.4 324.6,124.5 324.1,124.5" fill="#555" stroke="#888" stroke-width="0.5"/>
<polygon points="324.1,98.4 324.6,98.4 324.6,124.5 324.1,124.5" fill="#555" stroke="#888" stroke-width="0.5"/>
<polygon points="324.1,98.4 324.6,98.4 324.6,124.5 324.1,124.5" fill="#555" stroke="#888" stroke-width="0.5"/>
<polygon points="324.1,98.4 324.6,98.4 324.6,124.5 324.1,124.5" fill="#555" stroke="#888" stroke-width="0.5"/>
<polygon points="324.1,98.4 324.6,98.4 324.6,124.5 324.1,124.5" fill="#555" stroke="#888" stroke-width="0.5"/>
<polygon points="324.1,98.4 324.6,98.4 324.6,124.5 324.1,124.5" fill="#555" stroke="#888" stroke-width="0.5"/>
<polygon points="324.1,98.4 324.6,98.4 324.6,124.5 324.1,124.5" fill="#555" stroke="#888" stroke-width="0.5"/>
<polygon points="324.1,98.4 324.6,98.4 324.6,124.5 324.1,124.5" fill="#555" stroke="#888" stroke-width="0.5"/>
<polygon points="324.1,98.4 324.6,98.4 324.6,124.5 324.1,124.5" fill="#555" stroke="#888" stroke-width="0.5"/>
<polygon points="324.1,98.4 324.6,98.4 324.6,124.5 324.1,124.5" fill="#555" stroke="#888" stroke-width="0.5"/>
<polygon points="324.1,98.4 324.6,98.4 324.6,124.5 324.1,124.5" fill="#555" stroke="#888" stroke-width="0.5"/>
<polygon points="324.1,98.4 324.6,98.4 324.6,124.5 324.1,124.5" fill="#555" stroke="#888" stroke-width="0.5"/>
<polygon points="324.1,98.4 324.6,98.4 324.6,124.5 324.1,124.5" fill="#555" stroke="#888" stroke-width="0.5"/>
<polygon points="324.1,98.4 324.6,98.4 324.6,124.5 324.1,124.5" fill="#555" stroke="#888" stroke-width="0.5"/>
<polygon points="324.1,98.4 324.6,98.4 324.6,124.5 324.1,124.5" fill="#555" stroke="#888" stroke-width="0.5"/>
<polygon points="324.1,98.4 324.6,98.4 324.6,124.5 324.1,124.5" fill="#555" stroke="#888" stroke-width="0.5"/>
<polygon points="324.1,98.4 324.6,98.4 324.6,124.5 324.1,124.5" fill="#555" stroke="#888" stroke-width="0.5"/>
<polygon points="324.1,98.4 324.6,98.4 324.6,124.5 324.1,124.5" fill="#555" stroke="#888" stroke-width="0.5"/>
<polygon points="324.1,98.4 324.6,98.4 324.6,124.5 324.1,124.5" fill="#555" stroke="#888" stroke-width="0.5"/>
<polygon points="439.0,246.3 487.2,246.3 487.2,246.6 439.0,246.6" fill="#555" stroke="#888" stroke-width="0.5"/>
<polygon points="299.8,178.9 309.8,178.9 309.8,188.9 299.8,188.9" fill="#555" stroke="#888" stroke-width="0.5"/>
<polygon points="299.0,178.1 310.5,178.1 310.5,189.7 299.0,189.7" fill="#555" stroke="#888" stroke-width="0.5"/>
<polygon points="299.8,294.5 309.8,294.5 309.8,304.5 299.8,304.5" fill="#555" stroke="#888" stroke-width="0.5"/>
<polygon points="299.0,293.8 310.5,293.8 310.5,305.3 299.0,305.3" fill="#555" stroke="#888" stroke-width="0.5"/>
<polygon points="380.9,376.5 381.1,376.5 381.1,376.6 380.9,376.6" fill="#555" stroke="#888" stroke-width="0.5"/>
<polygon points="380.7,341.3 381.2,341.3 381.2,377.9 380.7,377.9" fill="#555" stroke="#888" stroke-width="0.5"/>
<polygon points="380.9,375.5 381.1,375.5 381.1,375.6 380.9,375.6" fill="#555" stroke="#888" stroke-width="0.5"/>
<polygon points="380.9,374.5 381.1,374.5 381.1,374.6 380.9,374.6" fill="#555" stroke="#888" stroke-width="0.5"/>
<polygon points="380.9,373.5 381.1,373.5 381.1,373.6 380.9,373.6" fill="#555" stroke="#888" stroke-width="0.5"/>
<polygon points="380.9,372.5 381.1,372.5 381.1,372.6 380.9,372.6" fill="#555" stroke="#888" stroke-width="0.5"/>
<polygon points="380.9,371.5 381.1,371.5 381.1,371.6 380.9,371.6" fill="#555" stroke="#888" stroke-width="0.5"/>
<polygon points="380.9,370.5 381.1,370.5 381.1,370.6 380.9,370.6" fill="#555" stroke="#888" stroke-width="0.5"/>
<polygon points="380.9,369.5 381.1,369.5 381.1,369.6 380.9,369.6" fill="#555" stroke="#888" stroke-width="0.5"/>
<polygon points="380.9,368.5 381.1,368.5 381.1,368.6 380.9,368.6" fill="#555" stroke="#888" stroke-width="0.5"/>
<polygon points="380.9,367.5 381.1,367.5 381.1,367.6 380.9,367.6" fill="#555" stroke="#888" stroke-width="0.5"/>
<polygon points="380.9,366.5 381.1,366.5 381.1,366.6 380.9,366.6" fill="#555" stroke="#888" stroke-width="0.5"/>
<polygon points="380.9,365.5 381.1,365.5 381.1,365.6 380.9,365.6" fill="#555" stroke="#888" stroke-width="0.5"/>
<polygon points="380.9,364.5 381.1,364.5 381.1,364.6 380.9,364.6" fill="#555" stroke="#888" stroke-width="0.5"/>
<polygon points="380.9,363.5 381.1,363.5 381.1,363.6 380.9,363.6" fill="#555" stroke="#888" stroke-width="0.5"/>
<polygon points="380.9,362.5 381.1,362.5 381.1,362.6 380.9,362.6" fill="#555" stroke="#888" stroke-width="0.5"/>
<polygon points="380.9,361.5 381.1,361.5 381.1,361.6 380.9,361.6" fill="#555" stroke="#888" stroke-width="0.5"/>
<polygon points="380.9,360.5 381.1,360.5 381.1,360.6 380.9,360.6" fill="#555" stroke="#888" stroke-width="0.5"/>
<polygon points="380.9,359.5 381.1,359.5 381.1,359.6 380.9,359.6" fill="#555" stroke="#888" stroke-width="0.5"/>
<polygon points="380.9,358.5 381.1,358.5 381.1,358.6 380.9,358.6" fill="#555" stroke="#888" stroke-width="0.5"/>
<polygon points="380.9,357.5 381.1,357.5 381.1,357.6 380.9,357.6" fill="#555" stroke="#888" stroke-width="0.5"/>
<polygon points="380.9,356.5 381.1,356.5 381.1,356.6 380.9,356.6" fill="#555" stroke="#888" stroke-width="0.5"/>
<polygon points="380.9,355.5 381.1,355.5 381.1,355.6 380.9,355.6" fill="#555" stroke="#888" stroke-width="0.5"/>
<polygon points="380.9,354.5 381.1,354.5 381.1,354.6 380.9,354.6" fill="#555" stroke="#888" stroke-width="0.5"/>
<polygon points="380.9,353.5 381.1,353.5 381.1,353.6 380.9,353.6" fill="#555" stroke="#888" stroke-width="0.5"/>
<polygon points="380.9,352.5 381.1,352.5 381.1,352.6 380.9,352.6" fill="#555" stroke="#888" stroke-width="0.5"/>
<polygon points="380.9,351.5 381.1,351.5 381.1,351.6 380.9,351.6" fill="#555" stroke="#888" stroke-width="0.5"/>
<polygon points="380.9,350.5 381.1,350.5 381.1,350.6 380.9,350.6" fill="#555" stroke="#888" stroke-width="0.5"/>
<polygon points="380.9,349.5 381.1,349.5 381.1,349.6 380.9,349.6" fill="#555" stroke="#888" stroke-width="0.5"/>
<polygon points="380.9,348.5 381.1,348.5 381.1,348.6 380.9,348.6" fill="#555" stroke="#888" stroke-width="0.5"/>
<polygon points="380.9,347.5 381.1,347.5 381.1,347.6 380.9,347.6" fill="#555" stroke="#888" stroke-width="0.5"/>
<polygon points="380.9,346.5 381.1,346.5 381.1,346.6 380.9,346.6" fill="#555" stroke="#888" stroke-width="0.5"/>
<polygon points="380.9,345.5 381.1,345.5 381.1,345.6 380.9,345.6" fill="#555" stroke="#888" stroke-width="0.5"/>
<polygon points="380.9,344.5 381.1,344.5 381.1,344.6 380.9,344.6" fill="#555" stroke="#888" stroke-width="0.5"/>
<polygon points="380.9,343.5 381.1,343.5 381.1,343.6 380.9,343.6" fill="#555" stroke="#888" stroke-width="0.5"/>
<polygon points="380.9,342.5 381.1,342.5 381.1,342.6 380.9,342.6" fill="#555" stroke="#888" stroke-width="0.5"/>
<polygon points="380.7,341.3 381.2,341.3 381.2,377.9 380.7,377.9" fill="#555" stroke="#888" stroke-width="0.5"/>
<polygon points="380.7,341.3 381.2,341.3 381.2,377.9 380.7,377.9" fill="#555" stroke="#888" stroke-width="0.5"/>
<polygon points="380.7,341.3 381.2,341.3 381.2,377.9 380.7,377.9" fill="#555" stroke="#888" stroke-width="0.5"/>
<polygon points="380.7,341.3 381.2,341.3 381.2,377.9 380.7,377.9" fill="#555" stroke="#888" stroke-width="0.5"/>
<polygon points="380.7,341.3 381.2,341.3 381.2,377.9 380.7,377.9" fill="#555" stroke="#888" stroke-width="0.5"/>
<polygon points="380.7,341.3 381.2,341.3 381.2,377.9 380.7,377.9" fill="#555" stroke="#888" stroke-width="0.5"/>
<polygon points="380.7,341.3 381.2,341.3 381.2,377.9 380.7,377.9" fill="#555" stroke="#888" stroke-width="0.5"/>
<polygon points="380.7,341.3 381.2,341.3 381.2,377.9 380.7,377.9" fill="#555" stroke="#888" stroke-width="0.5"/>
<polygon points="380.7,341.3 381.2,341.3 381.2,377.9 380.7,377.9" fill="#555" stroke="#888" stroke-width="0.5"/>
<polygon points="380.7,341.3 381.2,341.3 381.2,377.9 380.7,377.9" fill="#555" stroke="#888" stroke-width="0.5"/>
<polygon points="380.7,341.3 381.2,341.3 381.2,377.9 380.7,377.9" fill="#555" stroke="#888" stroke-width="0.5"/>
<polygon points="380.7,341.3 381.2,341.3 381.2,377.9 380.7,377.9" fill="#555" stroke="#888" stroke-width="0.5"/>
<polygon points="380.7,341.3 381.2,341.3 381.2,377.9 380.7,377.9" fill="#555" stroke="#888" stroke-width="0.5"/>
<polygon points="380.7,341.3 381.2,341.3 381.2,377.9 380.7,377.9" fill="#555" stroke="#888" stroke-width="0.5"/>
<polygon points="380.7,341.3 381.2,341.3 381.2,377.9 380.7,377.9" fill="#555" stroke="#888" stroke-width="0.5"/>
<polygon points="380.7,341.3 381.2,341.3 381.2,377.9 380.7,377.9" fill="#555" stroke="#888" stroke-width="0.5"/>
<polygon points="380.7,341.3 381.2,341.3 381.2,377.9 380.7,377.9" fill="#555" stroke="#888" stroke-width="0.5"/>
<polygon points="380.7,341.3 381.2,341.3 381.2,377.9 380.7,377.9" fill="#555" stroke="#888" stroke-width="0.5"/>
<polygon points="380.7,341.3 381.2,341.3 381.2,377.9 380.7,377.9" fill="#555" stroke="#888" stroke-width="0.5"/>
<polygon points="380.7,341.3 381.2,341.3 381.2,377.9 380.7,377.9" fill="#555" stroke="#888" stroke-width="0.5"/>
<polygon points="380.7,341.3 381.2,341.3 381.2,377.9 380.7,377.9" fill="#555" stroke="#888" stroke-width="0.5"/>
<polygon points="380.7,341.3 381.2,341.3 381.2,377.9 380.7,377.9" fill="#555" stroke="#888" stroke-width="0.5"/>
<polygon points="380.7,341.3 381.2,341.3 381.2,377.9 380.7,377.9" fill="#555" stroke="#888" stroke-width="0.5"/>
<polygon points="380.7,341.3 381.2,341.3 381.2,377.9 380.7,377.9" fill="#555" stroke="#888" stroke-width="0.5"/>
<polygon points="380.7,341.3 381.2,341.3 381.2,377.9 380.7,377.9" fill="#555" stroke="#888" stroke-width="0.5"/>
<polygon points="380.7,341.3 381.2,341.3 381.2,377.9 380.7,377.9" fill="#555" stroke="#888" stroke-width="0.5"/>
<polygon points="380.7,341.3 381.2,341.3 381.2,377.9 380.7,377.9" fill="#555" stroke="#888" stroke-width="0.5"/>
<polygon points="380.7,341.3 381.2,341.3 381.2,377.9 380.7,377.9" fill="#555" stroke="#888" stroke-width="0.5"/>
<polygon points="380.7,341.3 381.2,341.3 381.2,377.9 380.7,377.9" fill="#555" stroke="#888" stroke-width="0.5"/>
<polygon points="380.7,341.3 381.2,341.3 381.2,377.9 380.7,377.9" fill="#555" stroke="#888" stroke-width="0.5"/>
<polygon points="380.7,341.3 381.2,341.3 381.2,377.9 380.7,377.9" fill="#555" stroke="#888" stroke-width="0.5"/>
<polygon points="380.7,341.3 381.2,341.3 381.2,377.9 380.7,377.9" fill="#555" stroke="#888" stroke-width="0.5"/>
<polygon points="380.7,341.3 381.2,341.3 381.2,377.9 380.7,377.9" fill="#555" stroke="#888" stroke-width="0.5"/>
<polygon points="380.7,341.3 381.2,341.3 381.2,377.9 380.7,377.9" fill="#555" stroke="#888" stroke-width="0.5"/>
<polygon points="380.7,341.3 381.2,341.3 381.2,377.9 380.7,377.9" fill="#555" stroke="#888" stroke-width="0.5"/>
<polygon points="380.7,341.3 381.2,341.3 381.2,377.9 380.7,377.9" fill="#555" stroke="#888" stroke-width="0.5"/>
<polygon points="380.7,341.3 381.2,341.3 381.2,377.9 380.7,377.9" fill="#555" stroke="#888" stroke-width="0.5"/>
<polygon points="380.7,341.3 381.2,341.3 381.2,377.9 380.7,377.9" fill="#555" stroke="#888" stroke-width="0.5"/>
<polygon points="380.7,341.3 381.2,341.3 381.2,377.9 380.7,377.9" fill="#555" stroke="#888" stroke-width="0.5"/>
<polygon points="380.7,341.3 381.2,341.3 381.2,377.9 380.7,377.9" fill="#555" stroke="#888" stroke-width="0.5"/>
<polygon points="380.7,341.3 381.2,341.3 381.2,377.9 380.7,377.9" fill="#555" stroke="#888" stroke-width="0.5"/>
<polygon points="380.7,341.3 381.2,341.3 381.2,377.9 380.7,377.9" fill="#555" stroke="#888" stroke-width="0.5"/>
<polygon points="380.7,341.3 381.2,341.3 381.2,377.9 380.7,377.9" fill="#555" stroke="#888" stroke-width="0.5"/>
<polygon points="380.7,341.3 381.2,341.3 381.2,377.9 380.7,377.9" fill="#555" stroke="#888" stroke-width="0.5"/>
<polygon points="380.7,341.3 381.2,341.3 381.2,377.9 380.7,377.9" fill="#555" stroke="#888" stroke-width="0.5"/>
<polygon points="380.7,341.3 381.2,341.3 381.2,377.9 380.7,377.9" fill="#555" stroke="#888" stroke-width="0.5"/>
<polygon points="380.7,341.3 381.2,341.3 381.2,377.9 380.7,377.9" fill="#555" stroke="#888" stroke-width="0.5"/>
<polygon points="380.7,341.3 381.2,341.3 381.2,377.9 380.7,377.9" fill="#555" stroke="#888" stroke-width="0.5"/>
<polygon points="380.7,341.3 381.2,341.3 381.2,377.9 380.7,377.9" fill="#555" stroke="#888" stroke-width="0.5"/>
<polygon points="380.7,341.3 381.2,341.3 381.2,377.9 380.7,377.9" fill="#555" stroke="#888" stroke-width="0.5"/>
<polygon points="380.7,341.3 381.2,341.3 381.2,377.9 380.7,377.9" fill="#555" stroke="#888" stroke-width="0.5"/>
<polygon points="380.7,341.3 381.2,341.3 381.2,377.9 380.7,377.9" fill="#555" stroke="#888" stroke-width="0.5"/>
<polygon points="380.7,341.3 381.2,341.3 381.2,377.9 380.7,377.9" fill="#555" stroke="#888" stroke-width="0.5"/>
<polygon points="380.7,341.3 381.2,341.3 381.2,377.9 380.7,377.9" fill="#555" stroke="#888" stroke-width="0.5"/>
<polygon points="380.7,341.3 381.2,341.3 381.2,377.9 380.7,377.9" fill="#555" stroke="#888" stroke-width="0.5"/>
<polygon points="380.7,341.3 381.2,341.3 381.2,377.9 380.7,377.9" fill="#555" stroke="#888" stroke-width="0.5"/>
<polygon points="380.7,341.3 381.2,341.3 381.2,377.9 380.7,377.9" fill="#555" stroke="#888" stroke-width="0.5"/>
<polygon points="450.8,341.0 465.9,341.0 465.9,342.0 450.8,342.0" fill="#555" stroke="#888" stroke-width="0.5"/>
<polygon points="451.5,341.3 465.1,341.3 465.1,341.8 451.5,341.8" fill="#555" stroke="#888" stroke-width="0.5"/>
<polygon points="462.8,341.4 463.9,341.4 463.9,341.6 462.8,341.6" fill="#555" stroke="#888" stroke-width="0.5"/>
<polygon points="460.5,341.4 461.6,341.4 461.6,341.6 460.5,341.6" fill="#555" stroke="#888" stroke-width="0.5"/>
<polygon points="458.2,341.4 459.4,341.4 459.4,341.6 458.2,341.6" fill="#555" stroke="#888" stroke-width="0.5"/>
<polygon points="455.9,341.4 457.1,341.4 457.1,341.6 455.9,341.6" fill="#555" stroke="#888" stroke-width="0.5"/>
<polygon points="453.6,341.4 454.8,341.4 454.8,341.6 453.6,341.6" fill="#555" stroke="#888" stroke-width="0.5"/>
<polygon points="451.3,341.4 452.5,341.4 452.5,341.6 451.3,341.6" fill="#555" stroke="#888" stroke-width="0.5"/>
<polygon points="451.5,341.3 465.1,341.3 465.1,341.8 451.5,341.8" fill="#555" stroke="#888" stroke-width="0.5"/>
<polygon points="451.5,341.3 465.1,341.3 465.1,341.8 451.5,341.8" fill="#555" stroke="#888" stroke-width="0.5"/>
<polygon points="451.5,341.3 465.1,341.3 465.1,341.8 451.5,341.8" fill="#555" stroke="#888" stroke-width="0.5"/>
<polygon points="451.5,341.3 465.1,341.3 465.1,341.8 451.5,341.8" fill="#555" stroke="#888" stroke-width="0.5"/>
<polygon points="451.5,341.3 465.1,341.3 465.1,341.8 451.5,341.8" fill="#555" stroke="#888" stroke-width="0.5"/>
<polygon points="451.5,341.3 465.1,341.3 465.1,341.8 451.5,341.8" fill="#555" stroke="#888" stroke-width="0.5"/>
<polygon points="451.5,341.3 465.1,341.3 465.1,341.8 451.5,341.8" fill="#555" stroke="#888" stroke-width="0.5"/>
<polygon points="451.5,341.3 465.1,341.3 465.1,341.8 451.5,341.8" fill="#555" stroke="#888" stroke-width="0.5"/>
<polygon points="451.5,341.3 465.1,341.3 465.1,341.8 451.5,341.8" fill="#555" stroke="#888" stroke-width="0.5"/>
<polygon points="451.5,341.3 465.1,341.3 465.1,341.8 451.5,341.8" fill="#555" stroke="#888" stroke-width="0.5"/>
<polygon points="451.5,341.3 465.1,341.3 465.1,341.8 451.5,341.8" fill="#555" stroke="#888" stroke-width="0.5"/>
<polygon points="451.5,341.3 465.1,341.3 465.1,341.8 451.5,341.8" fill="#555" stroke="#888" stroke-width="0.5"/>
<polygon points="451.5,341.3 465.1,341.3 465.1,341.8 451.5,341.8" fill="#555" stroke="#888" stroke-width="0.5"/>
<polygon points="451.5,341.3 465.1,341.3 465.1,341.8 451.5,341.8" fill="#555" stroke="#888" stroke-width="0.5"/>
<polygon points="451.5,341.3 465.1,341.3 465.1,341.8 451.5,341.8" fill="#555" stroke="#888" stroke-width="0.5"/>
<polygon points="451.5,341.3 465.1,341.3 465.1,341.8 451.5,341.8" fill="#555" stroke="#888" stroke-width="0.5"/>
<polygon points="451.5,341.3 465.1,341.3 465.1,341.8 451.5,341.8" fill="#555" stroke="#888" stroke-width="0.5"/>
<polygon points="451.5,341.3 465.1,341.3 465.1,341.8 451.5,341.8" fill="#555" stroke="#888" stroke-width="0.5"/>
<polygon points="451.5,341.3 465.1,341.3 465.1,341.8 451.5,341.8" fill="#555" stroke="#888" stroke-width="0.5"/>
<polygon points="451.5,341.3 465.1,341.3 465.1,341.8 451.5,341.8" fill="#555" stroke="#888" stroke-width="0.5"/>
<polygon points="451.5,341.3 465.1,341.3 465.1,341.8 451.5,341.8" fill="#555" stroke="#888" stroke-width="0.5"/>
<polygon points="451.5,341.3 465.1,341.3 465.1,341.8 451.5,341.8" fill="#555" stroke="#888" stroke-width="0.5"/>
<polygon points="451.5,341.3 465.1,341.3 465.1,341.8 451.5,341.8" fill="#555" stroke="#888" stroke-width="0.5"/>
<polygon points="451.5,341.3 465.1,341.3 465.1,341.8 451.5,341.8" fill="#555" stroke="#888" stroke-width="0.5"/>
<polygon points="451.5,341.3 465.1,341.3 465.1,341.8 451.5,341.8" fill="#555" stroke="#888" stroke-width="0.5"/>
<polygon points="381.1,341.0 396.1,341.0 396.1,342.0 381.1,342.0" fill="#555" stroke="#888" stroke-width="0.5"/>
<polygon points="381.8,341.3 395.4,341.3 395.4,341.8 381.8,341.8" fill="#555" stroke="#888" stroke-width="0.5"/>
<polygon points="393.0,341.4 394.2,341.4 394.2,341.6 393.0,341.6" fill="#555" stroke="#888" stroke-width="0.5"/>
<polygon points="390.7,341.4 391.9,341.4 391.9,341.6 390.7,341.6" fill="#555" stroke="#888" stroke-width="0.5"/>
<polygon points="388.5,341.4 389.6,341.4 389.6,341.6 388.5,341.6" fill="#555" stroke="#888" stroke-width="0.5"/>
<polygon points="386.2,341.4 387.3,341.4 387.3,341.6 386.2,341.6" fill="#555" stroke="#888" stroke-width="0.5"/>
<polygon points="383.9,341.4 385.1,341.4 385.1,341.6 383.9,341.6" fill="#555" stroke="#888" stroke-width="0.5"/>
<polygon points="381.6,341.4 382.8,341.4 382.8,341.6 381.6,341.6" fill="#555" stroke="#888" stroke-width="0.5"/>
<polygon points="381.8,341.3 395.4,341.3 395.4,341.8 381.8,341.8" fill="#555" stroke="#888" stroke-width="0.5"/>
<polygon points="381.8,341.3 395.4,341.3 395.4,341.8 381.8,341.8" fill="#555" stroke="#888" stroke-width="0.5"/>
<polygon points="381.8,341.3 395.4,341.3 395.4,341.8 381.8,341.8" fill="#555" stroke="#888" stroke-width="0.5"/>
<polygon points="381.8,341.3 395.4,341.3 395.4,341.8 381.8,341.8" fill="#555" stroke="#888" stroke-width="0.5"/>
<polygon points="381.8,341.3 395.4,341.3 395.4,341.8 381.8,341.8" fill="#555" stroke="#888" stroke-width="0.5"/>
<polygon points="381.8,341.3 395.4,341.3 395.4,341.8 381.8,341.8" fill="#555" stroke="#888" stroke-width="0.5"/>
<polygon points="381.8,341.3 395.4,341.3 395.4,341.8 381.8,341.8" fill="#555" stroke="#888" stroke-width="0.5"/>
<polygon points="381.8,341.3 395.4,341.3 395.4,341.8 381.8,341.8" fill="#555" stroke="#888" stroke-width="0.5"/>
<polygon points="381.8,341.3 395.4,341.3 395.4,341.8 381.8,341.8" fill="#555" stroke="#888" stroke-width="0.5"/>
<polygon points="381.8,341.3 395.4,341.3 395.4,341.8 381.8,341.8" fill="#555" stroke="#888" stroke-width="0.5"/>
<polygon points="381.8,341.3 395.4,341.3 395.4,341.8 381.8,341.8" fill="#555" stroke="#888" stroke-width="0.5"/>
<polygon points="381.8,341.3 395.4,341.3 395.4,341.8 381.8,341.8" fill="#555" stroke="#888" stroke-width="0.5"/>
<polygon points="381.8,341.3 395.4,341.3 395.4,341.8 381.8,341.8" fill="#555" stroke="#888" stroke-width="0.5"/>
<polygon points="381.8,341.3 395.4,341.3 395.4,341.8 381.8,341.8" fill="#555" stroke="#888" stroke-width="0.5"/>
<polygon points="381.8,341.3 395.4,341.3 395.4,341.8 381.8,341.8" fill="#555" stroke="#888" stroke-width="0.5"/>
<polygon points="381.8,341.3 395.4,341.3 395.4,341.8 381.8,341.8" fill="#555" stroke="#888" stroke-width="0.5"/>
<polygon points="381.8,341.3 395.4,341.3 395.4,341.8 381.8,341.8" fill="#555" stroke="#888" stroke-width="0.5"/>
<polygon points="381.8,341.3 395.4,341.3 395.4,341.8 381.8,341.8" fill="#555" stroke="#888" stroke-width="0.5"/>
<polygon points="381.8,341.3 395.4,341.3 395.4,341.8 381.8,341.8" fill="#555" stroke="#888" stroke-width="0.5"/>
<polygon points="381.8,341.3 395.4,341.3 395.4,341.8 381.8,341.8" fill="#555" stroke="#888" stroke-width="0.5"/>
<polygon points="381.8,341.3 395.4,341.3 395.4,341.8 381.8,341.8" fill="#555" stroke="#888" stroke-width="0.5"/>
<polygon points="381.8,341.3 395.4,341.3 395.4,341.8 381.8,341.8" fill="#555" stroke="#888" stroke-width="0.5"/>
<polygon points="381.8,341.3 395.4,341.3 395.4,341.8 381.8,341.8" fill="#555" stroke="#888" stroke-width="0.5"/>
<polygon points="381.8,341.3 395.4,341.3 395.4,341.8 381.8,341.8" fill="#555" stroke="#888" stroke-width="0.5"/>
<polygon points="381.8,341.3 395.4,341.3 395.4,341.8 381.8,341.8" fill="#555" stroke="#888" stroke-width="0.5"/>
<polygon points="400.4,252.8 400.4,300.9 400.1,300.9 400.1,252.8" fill="#555" stroke="#888" stroke-width="0.5"/>
<polygon points="721.3,298.5 721.5,298.5 721.5,305.5 721.3,305.5" fill="#555" stroke="#888" stroke-width="0.5"/>
<polygon points="686.3,94.5 696.3,94.5 696.3,124.8 686.3,124.8" fill="#555" stroke="#888" stroke-width="0.5"/>
<polygon points="696.0,127.8 700.7,127.8 700.7,163.0 696.0,163.0" fill="#555" stroke="#888" stroke-width="0.5"/>
<polygon points="430.4,177.9 433.1,177.9 433.1,178.5 430.4,178.5" fill="#555" stroke="#888" stroke-width="0.5"/>
<polygon points="54.8,330.5 83.3,330.5 83.3,330.6 54.8,330.6" fill="#555" stroke="#888" stroke-width="0.5"/>
<polygon points="97.5,330.5 123.4,330.5 123.4,330.6 97.5,330.6" fill="#555" stroke="#888" stroke-width="0.5"/>
<polygon points="124.4,140.1 124.4,330.9 124.3,330.9 124.3,140.1" fill="#555" stroke="#888" stroke-width="0.5"/>
<polygon points="152.0,174.6 153.5,174.6 153.5,186.6 152.0,186.6" fill="#555" stroke="#888" stroke-width="0.5"/>
<polygon points="152.0,228.1 153.5,228.1 153.5,240.1 152.0,240.1" fill="#555" stroke="#888" stroke-width="0.5"/>
<polygon points="152.0,281.9 153.5,281.9 153.5,293.8 152.0,293.8" fill="#555" stroke="#888" stroke-width="0.5"/>
<polygon points="50.0,325.9 50.0,321.3 52.4,321.3 52.4,325.9" fill="#555" stroke="#888" stroke-width="0.5"/>
<polygon points="50.0,321.3 50.0,316.7 52.4,316.7 52.4,321.3" fill="#555" stroke="#888" stroke-width="0.5"/>
<polygon points="50.0,316.7 50.0,312.1 52.4,312.1 52.4,316.7" fill="#555" stroke="#888" stroke-width="0.5"/>
<polygon points="50.0,312.1 50.0,307.5 52.4,307.5 52.4,312.1" fill="#555" stroke="#888" stroke-width="0.5"/>
<polygon points="50.0,307.5 50.0,302.9 52.4,302.9 52.4,307.5" fill="#555" stroke="#888" stroke-width="0.5"/>
<polygon points="50.0,302.9 50.0,298.3 52.4,298.3 52.4,302.9" fill="#555" stroke="#888" stroke-width="0.5"/>
<polygon points="50.0,298.3 50.0,293.7 52.4,293.7 52.4,298.3" fill="#555" stroke="#888" stroke-width="0.5"/>
<polygon points="50.0,293.7 50.0,289.1 52.4,289.1 52.4,293.7" fill="#555" stroke="#888" stroke-width="0.5"/>
<polygon points="50.0,289.2 50.0,284.6 52.4,284.6 52.4,289.2" fill="#555" stroke="#888" stroke-width="0.5"/>
<polygon points="50.0,284.6 50.0,280.0 52.4,280.0 52.4,284.6" fill="#555" stroke="#888" stroke-width="0.5"/>
<polygon points="50.0,280.0 50.0,275.4 52.4,275.4 52.4,280.0" fill="#555" stroke="#888" stroke-width="0.5"/>
<polygon points="50.0,275.4 50.0,270.8 52.4,270.8 52.4,275.4" fill="#555" stroke="#888" stroke-width="0.5"/>
<polygon points="50.0,270.8 50.0,266.2 52.4,266.2 52.4,270.8" fill="#555" stroke="#888" stroke-width="0.5"/>
<polygon points="50.0,266.2 50.0,261.6 52.4,261.6 52.4,266.2" fill="#555" stroke="#888" stroke-width="0.5"/>
<polygon points="50.0,261.6 50.0,257.0 52.4,257.0 52.4,261.6" fill="#555" stroke="#888" stroke-width="0.5"/>
<polygon points="50.0,257.0 50.0,252.4 52.4,252.4 52.4,257.0" fill="#555" stroke="#888" stroke-width="0.5"/>
<polygon points="50.0,252.4 50.0,247.8 52.4,247.8 52.4,252.4" fill="#555" stroke="#888" stroke-width="0.5"/>
<polygon points="50.0,247.8 50.0,243.2 52.4,243.2 52.4,247.8" fill="#555" stroke="#888" stroke-width="0.5"/>
<polygon points="50.0,243.2 50.0,238.6 52.4,238.6 52.4,243.2" fill="#555" stroke="#888" stroke-width="0.5"/>
<polygon points="50.0,238.6 50.0,234.0 52.4,234.0 52.4,238.6" fill="#555" stroke="#888" stroke-width="0.5"/>
<polygon points="50.0,234.0 50.0,229.4 52.4,229.4 52.4,234.0" fill="#555" stroke="#888" stroke-width="0.5"/>
<polygon points="50.0,229.5 50.0,224.9 52.4,224.9 52.4,229.5" fill="#555" stroke="#888" stroke-width="0.5"/>
<polygon points="50.0,224.9 50.0,220.2 52.4,220.2 52.4,224.9" fill="#555" stroke="#888" stroke-width="0.5"/>
<polygon points="50.0,220.3 50.0,215.7 52.4,215.7 52.4,220.3" fill="#555" stroke="#888" stroke-width="0.5"/>
<polygon points="50.0,215.7 50.0,211.1 52.4,211.1 52.4,215.7" fill="#555" stroke="#888" stroke-width="0.5"/>
<polygon points="50.0,211.1 50.0,206.5 52.4,206.5 52.4,211.1" fill="#555" stroke="#888" stroke-width="0.5"/>
<polygon points="50.0,206.5 50.0,201.9 52.4,201.9 52.4,206.5" fill="#555" stroke="#888" stroke-width="0.5"/>
<polygon points="50.0,201.9 50.0,197.3 52.4,197.3 52.4,201.9" fill="#555" stroke="#888" stroke-width="0.5"/>
<polygon points="50.0,197.3 50.0,192.7 52.4,192.7 52.4,197.3" fill="#555" stroke="#888" stroke-width="0.5"/>
<polygon points="50.0,192.7 50.0,188.1 52.4,188.1 52.4,192.7" fill="#555" stroke="#888" stroke-width="0.5"/>
<polygon points="50.0,188.1 50.0,183.5 52.4,183.5 52.4,188.1" fill="#555" stroke="#888" stroke-width="0.5"/>
<polygon points="50.0,183.5 50.0,178.9 52.4,178.9 52.4,183.5" fill="#555" stroke="#888" stroke-width="0.5"/>
<polygon points="50.0,179.0 50.0,174.4 52.4,174.4 52.4,179.0" fill="#555" stroke="#888" stroke-width="0.5"/>
<polygon points="50.0,174.4 50.0,169.8 52.4,169.8 52.4,174.4" fill="#555" stroke="#888" stroke-width="0.5"/>
<polygon points="50.0,169.8 50.0,165.2 52.4,165.2 52.4,169.8" fill="#555" stroke="#888" stroke-width="0.5"/>
<polygon points="50.0,165.2 50.0,160.6 52.4,160.6 52.4,165.2" fill="#555" stroke="#888" stroke-width="0.5"/>
<polygon points="50.0,160.6 50.0,156.0 52.4,156.0 52.4,160.6" fill="#555" stroke="#888" stroke-width="0.5"/>
<polygon points="50.0,156.0 50.0,151.4 52.4,151.4 52.4,156.0" fill="#555" stroke="#888" stroke-width="0.5"/>
<polygon points="50.0,151.4 50.0,146.8 52.4,146.8 52.4,151.4" fill="#555" stroke="#888" stroke-width="0.5"/>
<polygon points="50.0,146.8 50.0,142.2 52.4,142.2 52.4,146.8" fill="#555" stroke="#888" stroke-width="0.5"/>
<polygon points="50.0,142.2 50.0,137.6 52.4,137.6 52.4,142.2" fill="#555" stroke="#888" stroke-width="0.5"/>
<polygon points="50.0,137.6 50.0,133.0 52.4,133.0 52.4,137.6" fill="#555" stroke="#888" stroke-width="0.5"/>
<polygon points="50.0,133.0 50.0,128.4 52.4,128.4 52.4,133.0" fill="#555" stroke="#888" stroke-width="0.5"/>
<polygon points="50.0,128.4 50.0,123.8 52.4,123.8 52.4,128.4" fill="#555" stroke="#888" stroke-width="0.5"/>
<polygon points="50.0,123.8 50.0,119.2 52.4,119.2 52.4,123.8" fill="#555" stroke="#888" stroke-width="0.5"/>
<polygon points="50.0,119.2 50.0,114.6 52.4,114.6 52.4,119.2" fill="#555" stroke="#888" stroke-width="0.5"/>
<polygon points="50.0,114.6 50.0,110.0 52.4,110.0 52.4,114.6" fill="#555" stroke="#888" stroke-width="0.5"/>
<polygon points="50.0,110.1 50.0,105.5 52.4,105.5 52.4,110.1" fill="#555" stroke="#888" stroke-width="0.5"/>
<polygon points="50.0,105.5 50.0,100.9 52.4,100.9 52.4,105.5" fill="#555" stroke="#888" stroke-width="0.5"/>
<polygon points="50.0,100.9 50.0,96.3 52.4,96.3 52.4,100.9" fill="#555" stroke="#888" stroke-width="0.5"/>
<polygon points="50.0,96.3 50.0,91.7 52.4,91.7 52.4,96.3" fill="#555" stroke="#888" stroke-width="0.5"/>
<polygon points="131.6,138.4 161.6,138.4 161.6,138.6 131.6,138.6" fill="#555" stroke="#888" stroke-width="0.5"/>
<polygon points="195.8,96.9 195.8,96.8 202.8,96.8 202.8,96.9" fill="#555" stroke="#888" stroke-width="0.5"/>
<polygon points="186.0,96.9 186.0,96.8 193.0,96.8 193.0,96.9" fill="#555" stroke="#888" stroke-width="0.5"/>
<polygon points="172.7,138.4 172.7,138.6 165.7,138.6 165.7,138.4" fill="#555" stroke="#888" stroke-width="0.5"/>
<polygon points="181.9,138.4 181.9,138.6 174.9,138.6 174.9,138.4" fill="#555" stroke="#888" stroke-width="0.5"/>
<polygon points="131.8,138.3 161.4,138.3 161.4,138.7 131.8,138.7" fill="#555" stroke="#888" stroke-width="0.5"/>
<polygon points="194.5,135.3 194.5,133.6 206.2,133.6 206.2,135.3" fill="#555" stroke="#888" stroke-width="0.5"/>
<polygon points="216.1,135.3 216.1,133.6 227.9,133.6 227.9,135.3" fill="#555" stroke="#888" stroke-width="0.5"/>
<polygon points="236.4,138.4 236.4,138.6 229.4,138.6 229.4,138.4" fill="#555" stroke="#888" stroke-width="0.5"/>
<polygon points="244.9,138.4 244.9,138.6 237.9,138.6 237.9,138.4" fill="#555" stroke="#888" stroke-width="0.5"/>
<polygon points="253.5,138.4 253.5,138.6 246.5,138.6 246.5,138.4" fill="#555" stroke="#888" stroke-width="0.5"/>
<polygon points="432.2,245.4 492.2,245.4 492.2,306.4 432.2,306.4" fill="#555" stroke="#888" stroke-width="0.5"/>
<polygon points="402.2,250.0 402.2,310.0 341.2,310.0 341.2,250.0" fill="#555" stroke="#888" stroke-width="0.5"/>
<polygon points="258.4,139.9 259.7,139.9 259.7,172.2 258.4,172.2" fill="#555" stroke="#888" stroke-width="0.5"/>
<polygon points="357.9,278.4 367.9,278.4 367.9,288.4 357.9,288.4" fill="#555" stroke="#888" stroke-width="0.5"/>
<polygon points="356.9,277.4 368.9,277.4 368.9,289.4 356.9,289.4" fill="#555" stroke="#888" stroke-width="0.5"/>
<polygon points="174.3,300.3 179.3,309.0 170.6,314.0 165.6,305.3" fill="#555" stroke="#888" stroke-width="0.5"/>
<polygon points="174.7,298.9 180.7,309.4 170.3,315.4 164.2,304.9" fill="#555" stroke="#888" stroke-width="0.5"/>
<polygon points="653.6,99.0 678.4,99.0 678.4,125.5 653.6,125.5" fill="#555" stroke="#888" stroke-width="0.5"/>
<polygon points="626.4,99.0 651.2,99.0 651.2,125.5 626.4,125.5" fill="#555" stroke="#888" stroke-width="0.5"/>
<polygon points="721.8,50.0 731.5,50.0 731.5,448.4 721.8,448.4" fill="#555" stroke="#888" stroke-width="0.5"/>
<polygon points="50.6,87.8 50.6,78.1 724.9,78.1 724.9,87.8" fill="#555" stroke="#888" stroke-width="0.5"/>
<polygon points="323.4,96.4 323.4,95.8 374.5,95.8 374.5,96.4" fill="#555" stroke="#888" stroke-width="0.5"/>
<polygon points="263.8,96.4 263.8,95.8 322.3,95.8 322.3,96.4" fill="#555" stroke="#888" stroke-width="0.5"/>
<polygon points="372.6,96.4 372.6,95.8 423.7,95.8 423.7,96.4" fill="#555" stroke="#888" stroke-width="0.5"/>
<polygon points="421.9,96.4 421.9,95.8 473.0,95.8 473.0,96.4" fill="#555" stroke="#888" stroke-width="0.5"/>
<polygon points="471.8,96.4 471.8,95.8 522.9,95.8 522.9,96.4" fill="#555" stroke="#888" stroke-width="0.5"/>
<polygon points="521.1,96.4 521.1,95.8 572.2,95.8 572.2,96.4" fill="#555" stroke="#888" stroke-width="0.5"/>
<polygon points="721.4,279.1 722.0,279.1 722.0,330.2 721.4,330.2" fill="#555" stroke="#888" stroke-width="0.5"/>
<polygon points="721.4,330.0 722.0,330.0 722.0,381.1 721.4,381.1" fill="#555" stroke="#888" stroke-width="0.5"/>
<polygon points="721.4,385.6 722.0,385.6 722.0,448.1 721.4,448.1" fill="#555" stroke="#888" stroke-width="0.5"/>
<polygon points="621.8,96.4 621.8,95.8 734.0,95.8 734.0,96.4" fill="#555" stroke="#888" stroke-width="0.5"/>
<polygon points="694.3,124.5 696.2,124.5 696.2,127.0 694.3,127.0" fill="#555" stroke="#888" stroke-width="0.5"/>
<polygon points="694.3,179.3 696.2,179.3 696.2,181.8 694.3,181.8" fill="#555" stroke="#888" stroke-width="0.5"/>
<polygon points="694.9,180.8 694.9,180.3 722.2,180.3 722.2,180.8" fill="#555" stroke="#888" stroke-width="0.5"/>
<polygon points="585.6,182.3 586.1,182.0 626.4,251.7 625.8,252.0" fill="#555" stroke="#888" stroke-width="0.5"/>
<polygon points="585.8,182.3 585.8,181.4 705.8,181.4 705.8,182.3" fill="#555" stroke="#888" stroke-width="0.5"/>
<polygon points="696.1,279.5 695.0,279.5 695.0,182.0 696.1,182.0" fill="#555" stroke="#888" stroke-width="0.5"/>
<polygon points="638.9,232.6 638.9,231.6 696.5,231.6 696.5,232.6" fill="#555" stroke="#888" stroke-width="0.5"/>
<polygon points="615.3,232.6 615.3,231.6 624.8,231.6 624.8,232.6" fill="#555" stroke="#888" stroke-width="0.5"/>
<polygon points="642.1,280.2 642.1,279.3 723.2,279.3 723.2,280.2" fill="#555" stroke="#888" stroke-width="0.5"/>
<polygon points="632.2,262.9 632.7,262.6 642.5,279.6 642.0,279.9" fill="#555" stroke="#888" stroke-width="0.5"/>
<polygon points="585.1,181.9 586.0,181.5 626.6,251.8 625.7,252.3" fill="#555" stroke="#888" stroke-width="0.5"/>
<polygon points="632.1,263.2 632.6,262.9 642.4,279.9 641.9,280.2" fill="#555" stroke="#888" stroke-width="0.5"/>
<polygon points="557.8,94.8 559.7,94.8 559.7,124.0 557.8,124.0" fill="#555" stroke="#888" stroke-width="0.5"/>
<polygon points="695.0,124.6 696.0,124.6 696.0,179.6 695.0,179.6" fill="#555" stroke="#888" stroke-width="0.5"/>
<polygon points="620.6,94.8 622.5,94.8 622.5,124.0 620.6,124.0" fill="#555" stroke="#888" stroke-width="0.5"/>
<polygon points="558.2,124.0 696.0,124.0 696.0,125.1 558.2,125.1" fill="#555" stroke="#888" stroke-width="0.5"/>
<polygon points="446.6,274.1 487.4,274.1 487.4,298.4 446.6,298.4" fill="#555" stroke="#888" stroke-width="0.5"/>
<polygon points="259.0,95.6 259.7,95.6 259.7,138.9 259.0,138.9" fill="#555" stroke="#888" stroke-width="0.5"/>
<polygon points="258.0,95.6 258.8,95.6 258.8,138.9 258.0,138.9" fill="#555" stroke="#888" stroke-width="0.5"/>
<polygon points="204.7,95.6 205.2,95.6 205.2,138.9 204.7,138.9" fill="#555" stroke="#888" stroke-width="0.5"/>
<polygon points="123.3,94.5 124.1,94.5 124.1,140.1 123.3,140.1" fill="#555" stroke="#888" stroke-width="0.5"/>
<polygon points="167.5,96.2 167.5,96.7 124.3,96.7 124.3,96.2" fill="#555" stroke="#888" stroke-width="0.5"/>
<polygon points="210.6,96.2 210.6,96.7 167.4,96.7 167.4,96.2" fill="#555" stroke="#888" stroke-width="0.5"/>
<polygon points="258.3,96.2 258.3,96.7 210.6,96.7 210.6,96.2" fill="#555" stroke="#888" stroke-width="0.5"/>
<polygon points="124.4,96.3 168.9,96.3 168.9,138.7 124.4,138.7" fill="#555" stroke="#888" stroke-width="0.5"/>
<polygon points="168.9,96.3 213.4,96.3 213.4,138.7 168.9,138.7" fill="#555" stroke="#888" stroke-width="0.5"/>
<polygon points="213.4,96.3 258.0,96.3 258.0,138.7 213.4,138.7" fill="#555" stroke="#888" stroke-width="0.5"/>
<polygon points="123.4,139.5 259.4,139.5 259.4,139.8 123.4,139.8" fill="#555" stroke="#888" stroke-width="0.5"/>
<polygon points="123.4,138.6 259.4,138.6 259.4,138.9 123.4,138.9" fill="#555" stroke="#888" stroke-width="0.5"/>
<polygon points="123.5,140.3 125.5,140.3 125.5,166.9 123.5,166.9" fill="#555" stroke="#888" stroke-width="0.5"/>
<polygon points="123.5,166.9 125.5,166.9 125.5,193.5 123.5,193.5" fill="#555" stroke="#888" stroke-width="0.5"/>
<polygon points="123.5,193.5 125.5,193.5 125.5,220.1 123.5,220.1" fill="#555" stroke="#888" stroke-width="0.5"/>
<polygon points="123.5,220.1 125.5,220.1 125.5,246.7 123.5,246.7" fill="#555" stroke="#888" stroke-width="0.5"/>
<polygon points="123.5,246.7 125.5,246.7 125.5,273.3 123.5,273.3" fill="#555" stroke="#888" stroke-width="0.5"/>
<polygon points="123.5,273.3 125.5,273.3 125.5,299.9 123.5,299.9" fill="#555" stroke="#888" stroke-width="0.5"/>
<polygon points="123.5,299.9 125.5,299.9 125.5,331.0 123.5,331.0" fill="#555" stroke="#888" stroke-width="0.5"/>
<polygon points="125.2,330.4 152.4,330.4 152.4,331.5 125.2,331.5" fill="#555" stroke="#888" stroke-width="0.5"/>
<polygon points="334.9,205.4 334.9,235.4 317.1,235.4 317.1,205.4" fill="#555" stroke="#888" stroke-width="0.5"/>
<polygon points="334.9,235.3 334.9,265.3 317.1,265.3 317.1,235.3" fill="#555" stroke="#888" stroke-width="0.5"/>
<polygon points="334.9,265.1 334.9,295.1 317.1,295.1 317.1,265.1" fill="#555" stroke="#888" stroke-width="0.5"/>
<polygon points="569.5,96.4 569.5,95.8 620.6,95.8 620.6,96.4" fill="#555" stroke="#888" stroke-width="0.5"/>
<polygon points="551.1,96.7 558.1,96.7 558.1,126.7 551.1,126.7" fill="#555" stroke="#888" stroke-width="0.5"/>
<polygon points="50.6,95.9 50.6,86.2 126.5,86.2 126.5,95.9" fill="#555" stroke="#888" stroke-width="0.5"/>
<polygon points="501.0,714.9 489.5,714.9 489.5,703.4 501.0,703.4" fill="#555" stroke="#888" stroke-width="0.5"/>
<polygon points="501.0,599.2 489.5,599.2 489.5,587.7 501.0,587.7" fill="#555" stroke="#888" stroke-width="0.5"/>
<polygon points="185.5,769.5 170.7,769.5 170.7,767.5 185.5,767.5" fill="#555" stroke="#888" stroke-width="0.5"/>
<polygon points="113.7,798.5 103.7,798.5 103.7,768.2 113.7,768.2" fill="#555" stroke="#888" stroke-width="0.5"/>
<polygon points="745.2,562.5 716.6,562.5 716.6,562.4 745.2,562.4" fill="#555" stroke="#888" stroke-width="0.5"/>
<polygon points="702.4,562.5 676.6,562.5 676.6,562.4 702.4,562.4" fill="#555" stroke="#888" stroke-width="0.5"/>
<polygon points="675.5,752.9 675.5,562.1 675.6,562.1 675.6,752.9" fill="#555" stroke="#888" stroke-width="0.5"/>
<polygon points="745.4,564.6 745.4,569.2 742.9,569.2 742.9,564.6" fill="#555" stroke="#888" stroke-width="0.5"/>
<polygon points="745.4,569.2 745.4,573.9 742.9,573.9 742.9,569.2" fill="#555" stroke="#888" stroke-width="0.5"/>
<polygon points="745.4,573.8 745.4,578.4 742.9,578.4 742.9,573.8" fill="#555" stroke="#888" stroke-width="0.5"/>
<polygon points="745.4,578.4 745.4,583.0 742.9,583.0 742.9,578.4" fill="#555" stroke="#888" stroke-width="0.5"/>
<polygon points="745.4,583.0 745.4,587.6 742.9,587.6 742.9,583.0" fill="#555" stroke="#888" stroke-width="0.5"/>
<polygon points="745.4,587.6 745.4,592.2 742.9,592.2 742.9,587.6" fill="#555" stroke="#888" stroke-width="0.5"/>
<polygon points="745.4,592.2 745.4,596.8 742.9,596.8 742.9,592.2" fill="#555" stroke="#888" stroke-width="0.5"/>
<polygon points="745.4,596.8 745.4,601.4 742.9,601.4 742.9,596.8" fill="#555" stroke="#888" stroke-width="0.5"/>
<polygon points="745.4,601.4 745.4,606.0 742.9,606.0 742.9,601.4" fill="#555" stroke="#888" stroke-width="0.5"/>
<polygon points="745.4,606.0 745.4,610.6 742.9,610.6 742.9,606.0" fill="#555" stroke="#888" stroke-width="0.5"/>
<polygon points="745.4,610.6 745.4,615.2 742.9,615.2 742.9,610.6" fill="#555" stroke="#888" stroke-width="0.5"/>
<polygon points="745.4,615.2 745.4,619.8 742.9,619.8 742.9,615.2" fill="#555" stroke="#888" stroke-width="0.5"/>
<polygon points="745.4,619.8 745.4,624.4 742.9,624.4 742.9,619.8" fill="#555" stroke="#888" stroke-width="0.5"/>
<polygon points="745.4,624.4 745.4,629.0 742.9,629.0 742.9,624.4" fill="#555" stroke="#888" stroke-width="0.5"/>
<polygon points="745.4,629.0 745.4,633.6 742.9,633.6 742.9,629.0" fill="#555" stroke="#888" stroke-width="0.5"/>
<polygon points="745.4,633.6 745.4,638.1 742.9,638.1 742.9,633.6" fill="#555" stroke="#888" stroke-width="0.5"/>
<polygon points="745.4,638.1 745.4,642.7 742.9,642.7 742.9,638.1" fill="#555" stroke="#888" stroke-width="0.5"/>
<polygon points="745.4,642.7 745.4,647.3 742.9,647.3 742.9,642.7" fill="#555" stroke="#888" stroke-width="0.5"/>
<polygon points="745.4,647.3 745.4,651.9 742.9,651.9 742.9,647.3" fill="#555" stroke="#888" stroke-width="0.5"/>
<polygon points="745.4,651.9 745.4,656.5 742.9,656.5 742.9,651.9" fill="#555" stroke="#888" stroke-width="0.5"/>
<polygon points="745.4,656.5 745.4,661.1 742.9,661.1 742.9,656.5" fill="#555" stroke="#888" stroke-width="0.5"/>
<polygon points="745.4,661.1 745.4,665.7 742.9,665.7 742.9,661.1" fill="#555" stroke="#888" stroke-width="0.5"/>
<polygon points="745.4,665.7 745.4,670.3 742.9,670.3 742.9,665.7" fill="#555" stroke="#888" stroke-width="0.5"/>
<polygon points="745.4,670.3 745.4,674.9 742.9,674.9 742.9,670.3" fill="#555" stroke="#888" stroke-width="0.5"/>
<polygon points="745.4,674.9 745.4,679.5 742.9,679.5 742.9,674.9" fill="#555" stroke="#888" stroke-width="0.5"/>
<polygon points="745.4,679.5 745.4,684.1 742.9,684.1 742.9,679.5" fill="#555" stroke="#888" stroke-width="0.5"/>
<polygon points="745.4,684.1 745.4,688.7 742.9,688.7 742.9,684.1" fill="#555" stroke="#888" stroke-width="0.5"/>
<polygon points="745.4,688.7 745.4,693.2 742.9,693.2 742.9,688.7" fill="#555" stroke="#888" stroke-width="0.5"/>
<polygon points="745.4,693.2 745.4,697.9 742.9,697.9 742.9,693.2" fill="#555" stroke="#888" stroke-width="0.5"/>
<polygon points="745.4,697.8 745.4,702.5 742.9,702.5 742.9,697.8" fill="#555" stroke="#888" stroke-width="0.5"/>
<polygon points="745.4,702.4 745.4,707.0 742.9,707.0 742.9,702.4" fill="#555" stroke="#888" stroke-width="0.5"/>
<polygon points="745.4,707.0 745.4,711.6 742.9,711.6 742.9,707.0" fill="#555" stroke="#888" stroke-width="0.5"/>
<polygon points="745.4,711.6 745.4,716.2 742.9,716.2 742.9,711.6" fill="#555" stroke="#888" stroke-width="0.5"/>
<polygon points="745.4,716.2 745.4,720.8 742.9,720.8 742.9,716.2" fill="#555" stroke="#888" stroke-width="0.5"/>
<polygon points="745.4,720.8 745.4,725.4 742.9,725.4 742.9,720.8" fill="#555" stroke="#888" stroke-width="0.5"/>
<polygon points="745.4,725.4 745.4,730.0 742.9,730.0 742.9,725.4" fill="#555" stroke="#888" stroke-width="0.5"/>
<polygon points="745.4,730.0 745.4,734.6 742.9,734.6 742.9,730.0" fill="#555" stroke="#888" stroke-width="0.5"/>
<polygon points="745.4,734.6 745.4,739.2 742.9,739.2 742.9,734.6" fill="#555" stroke="#888" stroke-width="0.5"/>
<polygon points="745.4,739.2 745.4,743.8 742.9,743.8 742.9,739.2" fill="#555" stroke="#888" stroke-width="0.5"/>
<polygon points="745.4,743.8 745.4,748.4 742.9,748.4 742.9,743.8" fill="#555" stroke="#888" stroke-width="0.5"/>
<polygon points="745.4,748.3 745.4,752.9 742.9,752.9 742.9,748.3" fill="#555" stroke="#888" stroke-width="0.5"/>
<polygon points="745.4,752.9 745.4,757.5 742.9,757.5 742.9,752.9" fill="#555" stroke="#888" stroke-width="0.5"/>
<polygon points="745.4,757.5 745.4,762.1 742.9,762.1 742.9,757.5" fill="#555" stroke="#888" stroke-width="0.5"/>
<polygon points="745.4,762.1 745.4,766.7 742.9,766.7 742.9,762.1" fill="#555" stroke="#888" stroke-width="0.5"/>
<polygon points="745.4,766.7 745.4,771.3 742.9,771.3 742.9,766.7" fill="#555" stroke="#888" stroke-width="0.5"/>
<polygon points="745.4,771.3 745.4,775.9 742.9,775.9 742.9,771.3" fill="#555" stroke="#888" stroke-width="0.5"/>
<polygon points="745.4,775.9 745.4,780.5 742.9,780.5 742.9,775.9" fill="#555" stroke="#888" stroke-width="0.5"/>
<polygon points="745.4,780.5 745.4,785.1 742.9,785.1 742.9,780.5" fill="#555" stroke="#888" stroke-width="0.5"/>
<polygon points="745.4,785.0 745.4,789.6 742.9,789.6 742.9,785.0" fill="#555" stroke="#888" stroke-width="0.5"/>
<polygon points="745.4,789.6 745.4,794.2 742.9,794.2 742.9,789.6" fill="#555" stroke="#888" stroke-width="0.5"/>
<polygon points="745.4,794.2 745.4,798.8 742.9,798.8 742.9,794.2" fill="#555" stroke="#888" stroke-width="0.5"/>
<polygon points="668.4,754.6 638.4,754.6 638.4,754.4 668.4,754.4" fill="#555" stroke="#888" stroke-width="0.5"/>
<polygon points="604.2,796.1 604.2,796.2 597.2,796.2 597.2,796.1" fill="#555" stroke="#888" stroke-width="0.5"/>
<polygon points="614.0,796.1 614.0,796.2 607.0,796.2 607.0,796.1" fill="#555" stroke="#888" stroke-width="0.5"/>
<polygon points="627.3,754.6 627.3,754.4 634.3,754.4 634.3,754.6" fill="#555" stroke="#888" stroke-width="0.5"/>
<polygon points="618.1,754.6 618.1,754.4 625.1,754.4 625.1,754.6" fill="#555" stroke="#888" stroke-width="0.5"/>
<polygon points="668.2,754.7 638.6,754.7 638.6,754.4 668.2,754.4" fill="#555" stroke="#888" stroke-width="0.5"/>
<polygon points="563.6,754.6 563.6,754.4 570.6,754.4 570.6,754.6" fill="#555" stroke="#888" stroke-width="0.5"/>
<polygon points="555.1,754.6 555.1,754.4 562.1,754.4 562.1,754.6" fill="#555" stroke="#888" stroke-width="0.5"/>
<polygon points="546.4,754.6 546.4,754.4 553.4,754.4 553.4,754.6" fill="#555" stroke="#888" stroke-width="0.5"/>
<polygon points="78.1,843.0 68.5,843.0 68.5,444.6 78.1,444.6" fill="#555" stroke="#888" stroke-width="0.5"/>
<polygon points="749.4,805.2 749.4,814.9 75.1,814.9 75.1,805.2" fill="#555" stroke="#888" stroke-width="0.5"/>
<polygon points="476.5,796.6 476.5,797.2 425.5,797.2 425.5,796.6" fill="#555" stroke="#888" stroke-width="0.5"/>
<polygon points="536.1,796.6 536.1,797.2 477.6,797.2 477.6,796.6" fill="#555" stroke="#888" stroke-width="0.5"/>
<polygon points="427.3,796.6 427.3,797.2 376.3,797.2 376.3,796.6" fill="#555" stroke="#888" stroke-width="0.5"/>
<polygon points="378.0,796.6 378.0,797.2 327.0,797.2 327.0,796.6" fill="#555" stroke="#888" stroke-width="0.5"/>
<polygon points="328.1,796.6 328.1,797.2 277.1,797.2 277.1,796.6" fill="#555" stroke="#888" stroke-width="0.5"/>
<polygon points="278.8,796.6 278.8,797.2 227.8,797.2 227.8,796.6" fill="#555" stroke="#888" stroke-width="0.5"/>
<polygon points="78.5,613.9 78.0,613.9 78.0,562.8 78.5,562.8" fill="#555" stroke="#888" stroke-width="0.5"/>
<polygon points="78.5,563.0 78.0,563.0 78.0,511.9 78.5,511.9" fill="#555" stroke="#888" stroke-width="0.5"/>
<polygon points="78.5,507.4 78.0,507.4 78.0,444.9 78.5,444.9" fill="#555" stroke="#888" stroke-width="0.5"/>
<polygon points="178.1,796.6 178.1,797.2 66.0,797.2 66.0,796.6" fill="#555" stroke="#888" stroke-width="0.5"/>
<polygon points="105.7,768.5 103.8,768.5 103.8,766.0 105.7,766.0" fill="#555" stroke="#888" stroke-width="0.5"/>
<polygon points="242.1,798.2 240.2,798.2 240.2,769.0 242.1,769.0" fill="#555" stroke="#888" stroke-width="0.5"/>
<polygon points="179.3,798.2 177.5,798.2 177.5,769.0 179.3,769.0" fill="#555" stroke="#888" stroke-width="0.5"/>
<polygon points="196.6,767.9 58.8,767.9 58.8,766.7 196.6,766.7" fill="#555" stroke="#888" stroke-width="0.5"/>
<polygon points="541.0,797.4 540.2,797.4 540.2,754.1 541.0,754.1" fill="#555" stroke="#888" stroke-width="0.5"/>
<polygon points="541.9,797.4 541.2,797.4 541.2,754.1 541.9,754.1" fill="#555" stroke="#888" stroke-width="0.5"/>
<polygon points="595.3,797.4 594.8,797.4 594.8,754.1 595.3,754.1" fill="#555" stroke="#888" stroke-width="0.5"/>
<polygon points="676.7,798.6 675.8,798.6 675.8,752.9 676.7,752.9" fill="#555" stroke="#888" stroke-width="0.5"/>
<polygon points="632.5,796.8 632.5,796.3 675.7,796.3 675.7,796.8" fill="#555" stroke="#888" stroke-width="0.5"/>
<polygon points="589.4,796.8 589.4,796.3 632.6,796.3 632.6,796.8" fill="#555" stroke="#888" stroke-width="0.5"/>
<polygon points="541.7,796.8 541.7,796.3 589.4,796.3 589.4,796.8" fill="#555" stroke="#888" stroke-width="0.5"/>
<polygon points="675.6,796.7 631.1,796.7 631.1,754.3 675.6,754.3" fill="#555" stroke="#888" stroke-width="0.5"/>
<polygon points="631.1,796.7 586.6,796.7 586.6,754.3 631.1,754.3" fill="#555" stroke="#888" stroke-width="0.5"/>
<polygon points="586.5,796.7 542.0,796.7 542.0,754.3 586.5,754.3" fill="#555" stroke="#888" stroke-width="0.5"/>
<polygon points="678.0,753.2 542.0,753.2 542.0,752.8 678.0,752.8" fill="#555" stroke="#888" stroke-width="0.5"/>
<polygon points="678.0,754.1 542.0,754.1 542.0,753.7 678.0,753.7" fill="#555" stroke="#888" stroke-width="0.5"/>
<polygon points="676.4,777.8 674.4,777.8 674.4,751.2 676.4,751.2" fill="#555" stroke="#888" stroke-width="0.5"/>
<polygon points="676.4,751.2 674.4,751.2 674.4,724.6 676.4,724.6" fill="#555" stroke="#888" stroke-width="0.5"/>
<polygon points="676.4,724.6 674.4,724.6 674.4,698.0 676.4,698.0" fill="#555" stroke="#888" stroke-width="0.5"/>
<polygon points="676.4,698.0 674.4,698.0 674.4,671.4 676.4,671.4" fill="#555" stroke="#888" stroke-width="0.5"/>
<polygon points="676.4,671.4 674.4,671.4 674.4,644.8 676.4,644.8" fill="#555" stroke="#888" stroke-width="0.5"/>
<polygon points="676.4,644.8 674.4,644.8 674.4,618.2 676.4,618.2" fill="#555" stroke="#888" stroke-width="0.5"/>
<polygon points="676.4,622.5 674.4,622.5 674.4,591.4 676.4,591.4" fill="#555" stroke="#888" stroke-width="0.5"/>
<polygon points="230.5,796.6 230.5,797.2 179.4,797.2 179.4,796.6" fill="#555" stroke="#888" stroke-width="0.5"/>
<polygon points="262.8,768.4 172.8,768.4 172.8,765.9 262.8,765.9" fill="#555" stroke="#888" stroke-width="0.5"/>
<polygon points="248.9,796.3 241.9,796.3 241.9,766.3 248.9,766.3" fill="#555" stroke="#888" stroke-width="0.5"/>
<polygon points="749.4,797.1 749.4,806.8 673.5,806.8 673.5,797.1" fill="#555" stroke="#888" stroke-width="0.5"/>
<polygon points="636.7,379.1 722.0,379.1 722.0,383.4 636.7,383.4" fill="#346" stroke="#58c" stroke-width="0.5"/>
<polygon points="551.5,379.1 636.8,379.1 636.8,383.4 551.5,383.4" fill="#346" stroke="#58c" stroke-width="0.5"/>
<polygon points="466.4,379.1 551.7,379.1 551.7,383.4 466.4,383.4" fill="#346" stroke="#58c" stroke-width="0.5"/>
<polygon points="381.4,379.1 466.7,379.1 466.7,383.4 381.4,383.4" fill="#346" stroke="#58c" stroke-width="0.5"/>
<polygon points="296.2,379.1 381.5,379.1 381.5,383.4 296.2,383.4" fill="#346" stroke="#58c" stroke-width="0.5"/>
<polygon points="211.1,379.1 296.4,379.1 296.4,383.4 211.1,383.4" fill="#346" stroke="#58c" stroke-width="0.5"/>
<polygon points="126.2,379.1 211.4,379.1 211.4,383.4 126.2,383.4" fill="#346" stroke="#58c" stroke-width="0.5"/>
<polygon points="224.1,226.0 259.3,226.0 259.3,280.0 224.1,280.0" fill="none" stroke="#c62" stroke-width="1" stroke-dasharray="4,2"/>
<polygon points="224.1,279.6 259.3,279.6 259.3,333.6 224.1,333.6" fill="none" stroke="#c62" stroke-width="1" stroke-dasharray="4,2"/>
<polygon points="152.3,172.3 187.6,172.3 187.6,226.3 152.3,226.3" fill="none" stroke="#c62" stroke-width="1" stroke-dasharray="4,2"/>
<polygon points="152.3,225.9 187.6,225.9 187.6,279.9 152.3,279.9" fill="none" stroke="#c62" stroke-width="1" stroke-dasharray="4,2"/>
<polygon points="152.3,279.6 187.6,279.6 187.6,333.6 152.3,333.6" fill="none" stroke="#c62" stroke-width="1" stroke-dasharray="4,2"/>
<polygon points="224.1,172.4 259.3,172.4 259.3,226.4 224.1,226.4" fill="none" stroke="#c62" stroke-width="1" stroke-dasharray="4,2"/>
<polygon points="341.5,177.9 492.7,177.9 492.7,213.0 341.5,213.0" fill="none" stroke="#c62" stroke-width="1" stroke-dasharray="4,2"/>
<polygon points="596.0,125.9 610.4,125.9 610.4,124.9 596.0,124.9" fill="#4a4" stroke="#4f4" stroke-width="0.5"/>
<polygon points="626.0,252.1 632.3,263.4 633.2,262.9 626.8,251.6" fill="#4a4" stroke="#4f4" stroke-width="0.5"/>
<polygon points="624.7,233.1 639.2,233.1 639.2,232.1 624.7,232.1" fill="#4a4" stroke="#4f4" stroke-width="0.5"/>
<polygon points="662.4,126.6 669.4,126.6 669.4,125.6 662.4,125.6" fill="#4a4" stroke="#4f4" stroke-width="0.5"/>
<polygon points="223.4,179.6 223.4,189.5 224.4,189.5 224.4,179.6" fill="#4a4" stroke="#4f4" stroke-width="0.5"/>
<polygon points="223.6,230.1 223.6,238.6 224.6,238.6 224.6,230.1" fill="#4a4" stroke="#4f4" stroke-width="0.5"/>
<polygon points="223.6,283.8 223.6,295.9 224.6,295.9 224.6,283.8" fill="#4a4" stroke="#4f4" stroke-width="0.5"/>
<polygon points="151.6,282.0 151.6,293.7 152.6,293.7 152.6,282.0" fill="#4a4" stroke="#4f4" stroke-width="0.5"/>
<polygon points="151.6,228.3 151.6,239.8 152.6,239.8 152.6,228.3" fill="#4a4" stroke="#4f4" stroke-width="0.5"/>
<polygon points="151.6,174.8 151.6,185.6 152.6,185.6 152.6,174.8" fill="#4a4" stroke="#4f4" stroke-width="0.5"/>
<polygon points="83.3,331.1 97.6,331.1 97.6,330.1 83.3,330.1" fill="#4a4" stroke="#4f4" stroke-width="0.5"/>
<polygon points="133.9,331.6 141.9,331.6 141.9,330.6 133.9,330.6" fill="#4a4" stroke="#4f4" stroke-width="0.5"/>
<polygon points="702.8,563.3 716.5,563.3 716.5,562.3 702.8,562.3" fill="#4a4" stroke="#4f4" stroke-width="0.5"/>
<polygon points="138.1,557.6 111.0,557.6 111.0,558.6 138.1,558.6" fill="#4a4" stroke="#4f4" stroke-width="0.5"/>
<polygon points="605.4,752.7 594.4,752.7 594.4,753.7 605.4,753.7" fill="#4a4" stroke="#4f4" stroke-width="0.5"/>
<polygon points="572.5,753.5 583.3,753.5 583.3,752.5 572.5,752.5" fill="#4a4" stroke="#4f4" stroke-width="0.5"/>
<text x="399.695" y="20" fill="white" font-size="14" text-anchor="middle">Floor 5</text>
</svg>